<ttFont>
          <CharString index="0">
            rmoveto
            160 vlineto
            310.98 -186 208.02 -287.99 -289.02 -183.99 -208.02 -310.98 vhcurveto
            -160 82 callgsubr
            186 -49 callsubr
            287.99 289.01 184 206.99 310.99 vhcurveto
            -53 162 rmoveto
            -162 vlineto
            -275.99 -152.99 -188 -267.02 -263.99 -156 188 275.99 vhcurveto
            162 vlineto
            274 -55 callsubr
            188 265.01 266 154.99 -188 -274 vhcurveto
            endchar
          </CharString>
          <CharString index="1">
            811.01 63.02 hlineto
            274.98 -171 187 -239.99 -250.02 -203.98 -223.99 -316 vhcurveto
            -44 vlineto
            -314 210.99 -223.99 263 173 21 callsubr
            72 103 71.99 vhcurveto
            -37.99 27 rlineto
            -116 -8 callsubr
            34 callsubr
            -33 -124 hhcurveto
            -238 -182 215 269.99 hvcurveto
            44 vlineto
            400.02 485.99 rmoveto
            216.99 140 -186.99 -217 hvcurveto
            -13 -752.99 vlineto
            235 -98 callgsubr
            153 181.99 218 hhcurveto
            endchar
          </CharString>
          <CharString index="2">
            -72 callsubr
            vhcurveto
            hintmask 10111011
            -99 callgsubr
            hintmask 10111101
            -96 callsubr
            hintmask 01111101
            -65 callsubr
            hintmask 10111101
            -103 callsubr
          </CharString>
          <CharString index="3">
            58 hlineto
            -469.02 -57 callgsubr
            2 callgsubr
            hlineto
            -49 hlineto
            -468.99 58 callgsubr
            59 hlineto
            136.99 342 rlineto
            610 hlineto
            -588 -58 callsubr
            261 653 22.02 66 22 -65 262 -654 rlineto
            endchar
          </CharString>
          <CharString index="4">
            -18 43.99 -9.99 87 78 vvcurveto
            -480.01 -185 rmoveto
            -163.99 -115.02 106 -54 callgsubr
            164 170 115 279 hvcurveto
            256 -257 hlineto
            -158.99 -71.99 -145 -100 -209.02 hhcurveto
            endchar
          </CharString>
          <CharString index="5">
            54.99 return
          </CharString>
          <CharString index="6">
            59 hlineto
            -545 69 callgsubr
            -14 hlineto
            -52 hlineto
            -545 60 callgsubr
            59 hlineto
            162 435 rlineto
            714 hlineto
            -694 -58 callsubr
            337 902 337.02 -902 rlineto
            endchar
          </CharString>
          <CharString index="7">
            652.98 48 342 49 323 49 -84 callgsubr
            1067.99 rmoveto
            hintmask 11101100
            4 callgsubr
            29 -26 callsubr
            -63 callgsubr
            86.02 vvcurveto
            138 -114 76 -146 -146 -112 -76 -138 -86.02 60 -34 callgsubr
            4 callgsubr
            -29 vhcurveto
            hintmask 11110010
            -104 -30 -71 12 callgsubr
            -94.99 vvcurveto
            -145 -23 callsubr
            -74.02 161 157 -9 callgsubr
            107 callsubr
            145 93.99 -70.98 126 callsubr
            -104.02 29 vhcurveto
            hintmask 11101100
            -314 182.99 rmoveto
            102.02 88 140 callgsubr
            117 116 91.01 122 callsubr
            -96.02 -98 -8 callsubr
            33 callsubr
            -115 -119 -88 -26 callsubr
            98 vhcurveto
            hintmask 11110010
            207 -549.99 rmoveto
            -133 -98.02 61 109 105 98.02 -63 callgsubr
            -54 callgsubr
            129 101 -68 callgsubr
            -105 -109 -99 -61 -129 hvcurveto
            endchar
          </CharString>
          <CharString index="8">
            rmoveto
            -54 -986.99 hlineto
            -281 -191 -153.99 -252 -252 -192 -55 callsubr
            281 vhcurveto
            986.99 -87 callsubr
            -986.99 vlineto
            -327 214 -161.99 284 284 213.02 161.99 327 vhcurveto
            endchar
          </CharString>
          <CharString index="9">
            rmoveto
            -54 -790 hlineto
            -218.99 -161 -119.01 -214 -214 -162.02 22 callsubr
            218.99 vhcurveto
            790 -52.99 -790 vlineto
            -261 184 -129.98 245 244 185 129.98 261 vhcurveto
            endchar
          </CharString>
          <CharString index="10">
            31.01 return
          </CharString>
          <CharString index="11">
            -313 -187 -137.02 -193 -171.99 -54 callgsubr
            -122 202 215.02 139 101 116.99 71.99 hvcurveto
            return
          </CharString>
          <CharString index="12">
            40.96 return
          </CharString>
          <CharString index="13">
            -102 -78 callgsubr
            734.98 59 vstem
            734.99 hmoveto
            59 838.98 hlineto
            200 -118 118 -198.99 vhcurveto
            -418.02 -55 431 hlineto
            147 98 -101 -151 hvcurveto
            endchar
          </CharString>
          <CharString index="14">
            655.99 48 215 -43 callgsubr
            445.99998 50 -35 callsubr
            1463.99 -66 callgsubr
            47.99 69 -37 callgsubr
            hvcurveto
            -198 3 callgsubr
            -103.02 -133.98 -238.99 hhcurveto
            -18 hlineto
            -1 -48 rlineto
            19 hlineto
            279.98 22 callsubr
            169 250 hvcurveto
            75 vlineto
            197 -97 117 -176 vhcurveto
            -5 -496 rmoveto
            -133 106 callgsubr
            105 113.01 106 callsubr
            82 110 132.02 134 107 callgsubr
            -87 -171.99 hvcurveto
            -38 vlineto
            -72 116 callgsubr
          </CharString>
          <CharString index="15">
            -55 255.02 hlineto
            -67.01 -72 -45 -151 -155 vvcurveto
            -450 vlineto
            -152.99 -47 -68.02 -139 -22 -25 2 4 22 callgsubr
            vhcurveto
            -83 callgsubr
            vlineto
            -3.99 27.99 25.99 -2 25 hhcurveto
            161 -8 callgsubr
            85.99 190 hvcurveto
            450 vlineto
            158 43.99 151 66 69 vhcurveto
            return
          </CharString>
          <CharString index="16">
            rmoveto
            91 callgsubr
            119 callsubr
            19 hlineto
            867 91 callgsubr
            668 729.99 54 -729.99 626.01 hlineto
            endchar
          </CharString>
          <CharString index="17">
            -39 callsubr
            -59 callgsubr
            -31 29 callgsubr
            31 hvcurveto
            endchar
          </CharString>
          <CharString index="18">
            652.98 48 416.01001 47.98 237.02 50.99 hstem
            -9 callgsubr
            54 418 53 vstem
            145 1070.98 rmoveto
            41 -12.99 -3 callgsubr
            -81.02 -121 -136.99 -65 -77 95 callsubr
            -106 -88 60 111 -11 hvcurveto
            -54 hlineto
            -148 13 -23 callsubr
            -71 55 callgsubr
            112 150 156 -113 94 -156 -83 -68 callgsubr
            22 callgsubr
            -20.01 -31 hvcurveto
            37 283.01 rlineto
            402 51 -447 hlineto
            endchar
          </CharString>
          <CharString index="19">
            58.98 vstem
            -10 callsubr
            hmoveto
            59 hlineto
            106 817.99 rlineto
            176 23 116 106 callsubr
            151 hhcurveto
            239.99 127.02 -128 -260 hvcurveto
            -669 -387.01 -83 callgsubr
            445.99 723.99 vlineto
            293.01 -152.99 152.99 -271.01 -139 -193.99 -34 -51 -152 vhcurveto
            19.99 -53 135 42 85 22 77 12 rlinecurve
            1 -6 -11 -4 -13 -4.01 -10 -5.98 rlinecurve
            -77 -45.02 33 callsubr
            -106 -15.01 -115 rrcurveto
            return
          </CharString>
          <CharString index="20">
            -53.99 return
          </CharString>
          <CharString index="21">
            rmoveto
            648.01 86 callsubr
            -245 -55 247.99 -62 callgsubr
            -649.02 -701.01 -83 callgsubr
            905.01 -25 callgsubr
            vlineto
            return
          </CharString>
          <CharString index="22">
            -95 callsubr
            hstem
            return
          </CharString>
          <CharString index="23">
            -18 0 43 298.99 -107 callgsubr
            719.01 -25 callgsubr
            return
          </CharString>
          <CharString index="24">
            vlineto
            -1160.99 54 584.99 vlineto
            -109 68 125.01 -79.99 176 hhcurveto
            256 150 221 -30 callgsubr
            -151 209 -257 vhcurveto
            352.99 90 callgsubr
            -113.99 -209 -236 -198 -121 126 callgsubr
            134 -51 vhcurveto
            506 vlineto
            127 42 19 callsubr
            146 230 hhcurveto
            238 -64 callsubr
            65 callgsubr
          </CharString>
          <CharString index="25">
            rmoveto
            -59 -1062.01 hlineto
            -76 -14 callgsubr
            178 -38.99 164.99 hhcurveto
            return
          </CharString>
          <CharString index="26">
            -98 callgsubr
            -60 callgsubr
            31 -97 callsubr
            -61 callgsubr
            return
          </CharString>
          <CharString index="27">
            1309 rmoveto
            -103 callgsubr
            132 callsubr
            -30.99 -94 callgsubr
            -79 callsubr
            -21 callsubr
            return
          </CharString>
          <CharString index="28">
            -53 callsubr
            -29.99 return
          </CharString>
          <CharString index="29">
            608.99 -20 rmoveto
            251 167 5 callsubr
            258 hvcurveto
            458 vlineto
            204 -76 93 -167 -81 -62.02 -18 -37.99 14 callgsubr
            vhcurveto
            22 -50.02 rlineto
            34.02 73.99 56.02 16 71.99 hhcurveto
            124.01 57 -77 -168 hvcurveto
            -444 vlineto
            79 callgsubr
            -144 -154 -215 -216 -144 154 229.99 vhcurveto
            return
          </CharString>
          <CharString index="30">
            100 -15.99 -107 callgsubr
            1087.99 55 return
          </CharString>
          <CharString index="31">
            56.99 return
          </CharString>
          <CharString index="32">
            -15.99 52.98 return
          </CharString>
          <CharString index="33">
            59 vstem
            541.98 hmoveto
            274 8.99 161.02 144 238 vvcurveto
            766.02 -807.02 -55 748.02 -711 vlineto
            -192 -149.02 -133 -227 -10 vhcurveto
            -344.99 -472 rmoveto
            59 869 hlineto
            115 6.98 65 22.02 -63 callgsubr
            vhcurveto
            -56 hlineto
            -24 -74 -7.99 -55 5 callgsubr
            vvcurveto
            return
          </CharString>
          <CharString index="34">
            -24 -100 callgsubr
            return
          </CharString>
          <CharString index="35">
            rmoveto
            542 vlineto
            228 -159 -64 callsubr
            -224.99 return
          </CharString>
          <CharString index="36">
            -31 callsubr
            -35.99 -23 callsubr
            -139 hhcurveto
            -99 -77 8 callsubr
            return
          </CharString>
          <CharString index="37">
            -13 callgsubr
            55 callsubr
            151 callgsubr
            return
          </CharString>
          <CharString index="38">
            -1164.98 return
          </CharString>
          <CharString index="39">
            -51 callsubr
            59 callgsubr
            1026.99 return
          </CharString>
          <CharString index="40">
            1309 -56 callsubr
            return
          </CharString>
          <CharString index="41">
            31 -86 callgsubr
            -31 return
          </CharString>
          <CharString index="42">
            -69.98 6 -77 14 -51 vhcurveto
            62 8.99 hlineto
            return
          </CharString>
          <CharString index="43">
            113.99 return
          </CharString>
          <CharString index="44">
            -18 callsubr
            -30 31 hvcurveto
            endchar
          </CharString>
          <CharString index="45">
            -51 callgsubr
            25 return
          </CharString>
          <CharString index="46">
            -107 callgsubr
            hstem
            return
          </CharString>
          <CharString index="47">
            90 0 -107 callgsubr
            667.98999 54 626.01001 -107 callgsubr
            return
          </CharString>
          <CharString index="48">
            -114.02 -49 callsubr
            hvcurveto
            -153.99 return
          </CharString>
          <CharString index="49">
            -107 callgsubr
            rmoveto
            return
          </CharString>
          <CharString index="50">
            867.98 49 474 62 hstem
            182 callgsubr
            53 vstem
            688.99 916.99 rmoveto
            -147 536 -14.99 hlineto
            -45 hlineto
            -417.02 -553 1 -32 rlineto
            423 -204 53 204 147 hlineto
            -554 49 rmoveto
            310 403 44 70.99 rlineto
            -473.99 vlineto
            endchar
          </CharString>
          <CharString index="51">
            rmoveto
            31 -81 callsubr
            -31 return
          </CharString>
          <CharString index="52">
            153.99 return
          </CharString>
          <CharString index="53">
            -15 callsubr
            988.99998 54 vstem
            return
          </CharString>
          <CharString index="54">
            -72 callgsubr
            -25 24 return
          </CharString>
          <CharString index="55">
            -55 hlineto
            -83.99 70 callgsubr
            return
          </CharString>
          <CharString index="56">
            -59 callsubr
            -188 -55 188 return
          </CharString>
          <CharString index="57">
            hstemhm
            92 -107 callgsubr
            -100 callgsubr
            -107 callgsubr
            return
          </CharString>
          <CharString index="58">
            -206.99 return
          </CharString>
          <CharString index="59">
            -283 -190 232 353 hvcurveto
            220 vlineto
            351.01 190 232 283 276.01 158.99 -142.99 -267 30 vhcurveto
            54 hlineto
            310.99 -30 -197 153 -292 hhcurveto
            -320 -207 164 callsubr
            return
          </CharString>
          <CharString index="60">
            5 -20 53 -33 43 505.98 55 444 54 return
          </CharString>
          <CharString index="61">
            31 -103 callgsubr
            return
          </CharString>
          <CharString index="62">
            -125.01 return
          </CharString>
          <CharString index="63">
            rmoveto
            -15 callgsubr
            return
          </CharString>
          <CharString index="64">
            -267 -121 215 127 callgsubr
            hvcurveto
            42 vlineto
            269 121 216.99 265 178 161 5 callgsubr
            -215 10 vhcurveto
            54 hlineto
            247.99 -10 -184.02 129 -209 hhcurveto
            -279 -161 209 callsubr
            return
          </CharString>
          <CharString index="65">
            -104 54 106 vlineto
            103 29 -63 callgsubr
            60 -8 callgsubr
            vhcurveto
            -37 31.99 rlineto
            -63 -68 callgsubr
            -43 -92 -123 vvcurveto
            return
          </CharString>
          <CharString index="66">
            63.02 -1 callgsubr
            return
          </CharString>
          <CharString index="67">
            257 206 134 264.99 181 -130 137.02 -182 47.99 vhcurveto
            hintmask 11101100
            -520.99 346.01 rmoveto
            206 157 -9 callgsubr
            209 205 105 callsubr
            -136.99 -194 -197 return
          </CharString>
          <CharString index="68">
            -44 callsubr
            31 return
          </CharString>
          <CharString index="69">
            -20 -19 callgsubr
            return
          </CharString>
          <CharString index="70">
            -119.01 5 callgsubr
            -78.99 -65 -137 -134 -99 74 106 hvcurveto
            -87 callsubr
            hlineto
            -156 149 return
          </CharString>
          <CharString index="71">
            -266.02 rlineto
            return
          </CharString>
          <CharString index="72">
            hstem
            96 callsubr
            -89 callgsubr
            431.99998 54 vstem
            346.99 return
          </CharString>
          <CharString index="73">
            194.99 return
          </CharString>
          <CharString index="74">
            -316.99 return
          </CharString>
          <CharString index="75">
            -129.99 vlineto
            -102.99 -29 -67.01 -60 14 callgsubr
            vhcurveto
            37 -32 rlineto
            63 -45 callgsubr
            return
          </CharString>
          <CharString index="76">
            -52 callsubr
            -66 vhcurveto
            -112 return
          </CharString>
          <CharString index="77">
            287.98 hvcurveto
            21.02 vlineto
            286.98 return
          </CharString>
          <CharString index="78">
            48 callgsubr
            -8 callgsubr
            return
          </CharString>
          <CharString index="79">
            -49 callgsubr
            -31 24 -23.98 return
          </CharString>
          <CharString index="80">
            rmoveto
            -107 callgsubr
            return
          </CharString>
          <CharString index="81">
            60.99 return
          </CharString>
          <CharString index="82">
            265.99 return
          </CharString>
          <CharString index="83">
            vlineto
            174 72.01 110 144 145 71 -110 -174 vhcurveto
            endchar
          </CharString>
          <CharString index="84">
            123.99 return
          </CharString>
          <CharString index="85">
            288 -20 54 1387.98 54 return
          </CharString>
          <CharString index="86">
            -97 callsubr
            hvcurveto
            return
          </CharString>
          <CharString index="87">
            43 hlineto
            303 hlineto
            298.99 221 207.99 308 hvcurveto
            132 vlineto
            308 -221 209 -297.98 vhcurveto
            465 -648.99 rmoveto
            -271.01 -197 -191 -269 vhcurveto
            -292 return
          </CharString>
          <CharString index="88">
            -105 vlineto
            -103.02 -29 -68 callgsubr
            -60 -78 vhcurveto
            37 3 callsubr
            rlineto
            63 -63 callgsubr
            return
          </CharString>
          <CharString index="89">
            -98 callgsubr
            -102 callgsubr
            -31 149 callsubr
            return
          </CharString>
          <CharString index="90">
            30.99 -62 callsubr
            -102 callgsubr
            return
          </CharString>
          <CharString index="91">
            -102 callgsubr
            -21 callgsubr
            -103 callgsubr
            return
          </CharString>
          <CharString index="92">
            hstem
            132.99 -102 callsubr
            return
          </CharString>
          <CharString index="93">
            212.99 -20 rmoveto
            167 86 88 191 hvcurveto
            898 -342 -55 283.01 -839 vlineto
            -156 -67.01 -71 -124 33 callsubr
            -54 6 9.02 3 callsubr
            vhcurveto
            return
          </CharString>
          <CharString index="94">
            28 callsubr
            99 95 callgsubr
            -21 -21.01 98 vhcurveto
            -1460.98 54 1495.98 vlineto
            33.02 -117 -134 28 105 callgsubr
            hhcurveto
            endchar
          </CharString>
          <CharString index="95">
            -157 -181 -102 callsubr
            186 -12.99 hvcurveto
            -54 hlineto
            -158.99 142.99 -136 262 233 147 117 167 170 -110 86 -258.01 59 vhcurveto
            return
          </CharString>
          <CharString index="96">
            hstem
            93.98 53 432.01001 53 vstem
            631.99 return
          </CharString>
          <CharString index="97">
            177.99 return
          </CharString>
          <CharString index="98">
            -13.99 return
          </CharString>
          <CharString index="99">
            -90.01 return
          </CharString>
          <CharString index="100">
            rlineto
            -65.99 0 callsubr
            return
          </CharString>
          <CharString index="101">
            58.98 vstem
            919 hmoveto
            58.99 709 hlineto
            183 callsubr
            -356 -55 359.02 -62 callgsubr
            return
          </CharString>
          <CharString index="102">
            43 callgsubr
            887.01 54 vstem
            return
          </CharString>
          <CharString index="103">
            152 callsubr
            hmoveto
            59 1157 -228 -55 169 hlineto
            return
          </CharString>
          <CharString index="104">
            289 56 callsubr
            return
          </CharString>
          <CharString index="105">
            -616 185 callsubr
            return
          </CharString>
          <CharString index="106">
            167.99 -107 callgsubr
            return
          </CharString>
          <CharString index="107">
            hlineto
            -34 callsubr
            return
          </CharString>
          <CharString index="108">
            -25 callsubr
            hstem
            return
          </CharString>
          <CharString index="109">
            1013.98 54 return
          </CharString>
          <CharString index="110">
            -31.99 return
          </CharString>
          <CharString index="111">
            -23.99 return
          </CharString>
          <CharString index="112">
            171.99 return
          </CharString>
          <CharString index="113">
            128 callsubr
            -103 callgsubr
            31 39 callsubr
            -31 47 callsubr
            return
          </CharString>
          <CharString index="114">
            177 callsubr
            511.98999 111 457.05 -95 callsubr
            return
          </CharString>
          <CharString index="115">
            -69 -110 -28 callgsubr
            return
          </CharString>
          <CharString index="116">
            -218.99 -341.02 hvcurveto
            -20.99 vlineto
            return
          </CharString>
          <CharString index="117">
            42 callsubr
            674.99998 55 return
          </CharString>
          <CharString index="118">
            -234 78 callgsubr
            return
          </CharString>
          <CharString index="119">
            118.99 return
          </CharString>
          <CharString index="120">
            266.02 return
          </CharString>
          <CharString index="121">
            0 43 504.98 32 callgsubr
            return
          </CharString>
          <CharString index="122">
            -64 callgsubr
            rmoveto
            return
          </CharString>
          <CharString index="123">
            45 67 callgsubr
            169.98 54 720 55 188 callsubr
            -175 -122 -84.99 -128 -70 hvcurveto
            return
          </CharString>
          <CharString index="124">
            rmoveto
            -504.01 854 rlineto
            -71.99 hlineto
            548.99 -903 rlineto
            -552.98 54 552.98 vlineto
            549 903 rlineto
            -66 hlineto
            endchar
          </CharString>
          <CharString index="125">
            111 333.98999 111 return
          </CharString>
          <CharString index="126">
            95.99 return
          </CharString>
          <CharString index="127">
            252.99 return
          </CharString>
          <CharString index="128">
            114.01 return
          </CharString>
          <CharString index="129">
            119.01 return
          </CharString>
          <CharString index="130">
            342 -85 callgsubr
            1389.99 195 callsubr
            55 1048.98999 54 vstem
            1287.99 698.98 rmoveto
            return
          </CharString>
          <CharString index="131">
            192 callgsubr
            209 -30 callsubr
            112.99 209 238.02 return
          </CharString>
          <CharString index="132">
            37 callgsubr
            -31 return
          </CharString>
          <CharString index="133">
            -31 -46 callgsubr
            31 return
          </CharString>
          <CharString index="134">
            53.99 153 callsubr
            return
          </CharString>
          <CharString index="135">
            169 87.99 98 142 return
          </CharString>
          <CharString index="136">
            -239 2 callgsubr
            64 vlineto
            return
          </CharString>
          <CharString index="137">
            55 70.01001 return
          </CharString>
          <CharString index="138">
            13 callsubr
            rlineto
            return
          </CharString>
          <CharString index="139">
            197 callsubr
            -53 callgsubr
            -25 25 -30.99 -31 167 callgsubr
            31 hvcurveto
            return
          </CharString>
          <CharString index="140">
            -60.99 return
          </CharString>
          <CharString index="141">
            -106.99 return
          </CharString>
          <CharString index="142">
            vstem
            366.98 hmoveto
            62 hlineto
            -184 13 callgsubr
            rlineto
            317.01 hlineto
            1 55 rlineto
            -479.01 -51.02 hlineto
            98 -10 rlineto
            return
          </CharString>
          <CharString index="143">
            rmoveto
            -182 -137.02 -118.99 -152 -64.98 hvcurveto
            return
          </CharString>
          <CharString index="144">
            hhcurveto
            255 -55 callsubr
            174 276.99 hvcurveto
            1067 vlineto
            -424 return
          </CharString>
          <CharString index="145">
            155 callgsubr
            154 callgsubr
            -60 callgsubr
            -24 31 return
          </CharString>
          <CharString index="146">
            -23 callgsubr
            102 callsubr
            return
          </CharString>
          <CharString index="147">
            -100.99 80 -155.02 -146.99 -118 -87 return
          </CharString>
          <CharString index="148">
            -53 callgsubr
            25 return
          </CharString>
          <CharString index="149">
            hstemhm
            -1 callsubr
            return
          </CharString>
          <CharString index="150">
            hintmask 10111000
            42 callgsubr
            -176 -122 -87 -129 -69 hvcurveto
            650.02 -54 vlineto
            hintmask 01111000
            -1536 return
          </CharString>
          <CharString index="151">
            51 -38 callsubr
            165.01001 265.99 147 callsubr
            return
          </CharString>
          <CharString index="152">
            98 vvcurveto
            136 -100 80 -149.02 -168 79 callsubr
            return
          </CharString>
          <CharString index="153">
            27 callgsubr
            hstem
            return
          </CharString>
          <CharString index="154">
            54 callsubr
            31 hvcurveto
            return
          </CharString>
          <CharString index="155">
            hvcurveto
            290.02 vmoveto
            67.99 49 -49 -71 -69 -49 -47 122 callsubr
            -68 -49 47 69 71 49 49 68 hvcurveto
            return
          </CharString>
          <CharString index="156">
            69 callsubr
            142 callgsubr
            158 callsubr
            hlineto
            148 callgsubr
            return
          </CharString>
          <CharString index="157">
            -174.98 55 1082 vlineto
            endchar
          </CharString>
          <CharString index="158">
            -77 callsubr
            168 callgsubr
            return
          </CharString>
          <CharString index="159">
            124.01 103 callgsubr
            -110.02 hvcurveto
            return
          </CharString>
          <CharString index="160">
            7.99 52 rlineto
            return
          </CharString>
          <CharString index="161">
            -102 callgsubr
            24 -24 return
          </CharString>
          <CharString index="162">
            -102 callgsubr
            -80 callgsubr
            return
          </CharString>
          <CharString index="163">
            -20 54 1381.01999 -95 callsubr
            return
          </CharString>
          <CharString index="164">
            -102 callsubr
            90 callsubr
            return
          </CharString>
          <CharString index="165">
            -57 callgsubr
            rmoveto
            return
          </CharString>
          <CharString index="166">
            -31 -102 callgsubr
            return
          </CharString>
          <CharString index="167">
            267 -58 63 -111 -98 vvcurveto
            123 callsubr
            20 callgsubr
            143 callsubr
            -213.02 vhcurveto
            return
          </CharString>
          <CharString index="168">
            1556.99 rmoveto
            -176 34 callsubr
            -59 callsubr
            return
          </CharString>
          <CharString index="169">
            -98 callgsubr
            -31 155 callgsubr
            -100 callgsubr
            -31 -25 -60 callgsubr
            137 callsubr
          </CharString>
          <CharString index="170">
            1346.99 rmoveto
            391 -89 callgsubr
            -391 hlineto
            return
          </CharString>
          <CharString index="171">
            -121 -100.99 -198 hhcurveto
            endchar
          </CharString>
          <CharString index="172">
            238 234.99 93 -152.99 -128 181 callgsubr
            vhcurveto
            -491.01 vlineto
            return
          </CharString>
          <CharString index="173">
            139 callsubr
            24 return
          </CharString>
          <CharString index="174">
            hstemhm
            -58 callgsubr
            return
          </CharString>
          <CharString index="175">
            -25 -102 callgsubr
            return
          </CharString>
          <CharString index="176">
            -196.02 rlineto
            return
          </CharString>
          <CharString index="177">
            hstem
            34 callgsubr
            return
          </CharString>
          <CharString index="178">
            141.99 return
          </CharString>
          <CharString index="179">
            107.99 return
          </CharString>
          <CharString index="180">
            170 0 43 -43 93 981.99 -22 callgsubr
            -40.96002 -95 callsubr
            return
          </CharString>
          <CharString index="181">
            156 callsubr
            70 -81.02 82 121 vvcurveto
            124.01 130 109 232 return
          </CharString>
          <CharString index="182">
            115 callgsubr
            142 callgsubr
            hlineto
            return
          </CharString>
          <CharString index="183">
            99.98 return
          </CharString>
          <CharString index="184">
            94.99 return
          </CharString>
          <CharString index="185">
            189.99 return
          </CharString>
          <CharString index="186">
            -101.99 return
          </CharString>
          <CharString index="187">
            -103 callgsubr
            -100 callgsubr
            return
          </CharString>
          <CharString index="188">
            -23 callgsubr
            -98 callgsubr
            return
          </CharString>
          <CharString index="189">
            -98 callgsubr
            24 return
          </CharString>
          <CharString index="190">
            -49 vhcurveto
            hintmask 11110010
            -182 104 callgsubr
            -127 -136 -181 vvcurveto
            -264.99 return
          </CharString>
          <CharString index="191">
            59 vstem
            704.98 -416.01 rmoveto
            59 1573 -704 -55 645 hlineto
            return
          </CharString>
          <CharString index="192">
            1285.98 120 callsubr
            -33.95001 71 callgsubr
            return
          </CharString>
          <CharString index="193">
            196 callsubr
            -309.98 vhcurveto
            return
          </CharString>
          <CharString index="194">
            -266 134 callsubr
            266 rlineto
            return
          </CharString>
          <CharString index="195">
            100 callsubr
            hstem
            return
          </CharString>
          <CharString index="196">
            0 43 1005.98 53 return
          </CharString>
          <CharString index="197">
            hstem
            -58 callgsubr
            return
          </CharString>
          <CharString index="198">
            vlineto
            -54 -69 callsubr
            return
          </CharString>
          <CharString index="199">
            25 -60 callgsubr
            31 return
          </CharString>
          <CharString index="200">
            hstem
            -22 callgsubr
            54 return
          </CharString>
          <CharString index="201">
            223.99 return
          </CharString>
          <CharString index="202">
            -147.99 return
          </CharString>
          <CharString index="203">
            77.99 return
          </CharString>
          <CharString index="204">
            279.98 -68 99 -76 -141 vvcurveto
            -145 -152.99 -99 -217 vhcurveto
            return
          </CharString>
          <CharString index="205">
            -1071.99 vlineto
            -798 1071.99 rlineto
            118 callsubr
            hlineto
            return
          </CharString>
          <CharString index="206">
            -1361 vlineto
            -939.99 1361 rlineto
            -55 -76 callgsubr
            55 hlineto
            return
          </CharString>
          <CharString index="207">
            0 -102 callsubr
            1046.98999 55 return
          </CharString>
          <CharString index="208">
            0 callsubr
            -36 callsubr
            return
          </CharString>
          <CharString index="209">
            25 -102 callgsubr
            -31 -24 -25 return
          </CharString>
          <CharString index="210">
            -159.99 return
          </CharString>
          <CharString index="211">
            51.99 return
          </CharString>
          <CharString index="212">
            165.99 return
          </CharString>
          <CharString index="213">
            117.99 return
          </CharString>
          <CharString index="214">
            74.02 return
          </CharString>
          <CharString index="215">
            -435.99 53 362 185 callgsubr
            return
          </CharString>
          <CharString index="216">
            -102 callgsubr
            29 callgsubr
            -103 callgsubr
            return
          </CharString>
          <CharString index="217">
            136 callsubr
            144 callsubr
            hlineto
            35 callgsubr
            -266 rlineto
            return
          </CharString>
          <CharString index="218">
            1082 -54 -1082 vlineto
            endchar
          </CharString>
          <CharString index="219">
            -157 122 197 vhcurveto
            hintmask 11110010
            369.99 -1057 rmoveto
            -233 return
          </CharString>
          <CharString index="220">
            -226 -136 -122 -151 -177 124 -68 241.99 -52 return
          </CharString>
          <CharString index="221">
            -5 -37 -29 -4 -41 hhcurveto
            -87 -76 35 190 hvcurveto
            768 246 55 -246 return
          </CharString>
          <CharString index="222">
            75 648.99 53 hstem
            534.99 -102 callsubr
            vstem
            return
          </CharString>
          <CharString index="223">
            1363.99 vlineto
            939.99 -1363.99 rlineto
            endchar
          </CharString>
          <CharString index="224">
            576.98 rmoveto
            811.01 return
          </CharString>
          <CharString index="225">
            -54 -69 callsubr
            54 return
          </CharString>
          <CharString index="226">
            vlineto
            -40 callgsubr
            return
          </CharString>
          <CharString index="227">
            30 callsubr
            54 return
          </CharString>
          <CharString index="228">
            -235.99 return
          </CharString>
          <CharString index="229">
            -67.99 return
          </CharString>
          <CharString index="230">
            -113.01 return
          </CharString>
          <CharString index="231">
            26.99 return
          </CharString>
          <CharString index="232">
            235.99 return
          </CharString>
          <CharString index="233">
            73.01 return
          </CharString>
          <CharString index="234">
            -88.99 return
          </CharString>
          <CharString index="235">
            154 callsubr
            66 callsubr
            return
          </CharString>
          <CharString index="236">
            121 186 hhcurveto
            251 123 -187 -236 121 callsubr
            return
          </CharString>
          <CharString index="237">
            -476.02 vlineto
            251 248 rlineto
            91.02 94 88 return
          </CharString>
          <CharString index="238">
            vlineto
            -415.99 246 -303.98 333.99 return
          </CharString>
          <CharString index="239">
            92 callsubr
            -97 callsubr
            -25 -98 callgsubr
            return
          </CharString>
          <CharString index="240">
            187 69 callsubr
            return
          </CharString>
          <CharString index="241">
            rlineto
            60 0 callsubr
            return
          </CharString>
          <CharString index="242">
            hstem
            184.99 return
          </CharString>
          <CharString index="243">
            1562.99 rmoveto
            return
          </CharString>
          <CharString index="244">
            -30 31 hvcurveto
            endchar
          </CharString>
          <CharString index="245">
            -52 134 123 -25 107.01 hhcurveto
            127 callgsubr
            return
          </CharString>
          <CharString index="246">
            -103 callgsubr
            -33 callgsubr
            return
          </CharString>
          <CharString index="247">
            -285.98 return
          </CharString>
          <CharString index="248">
            44.99 return
          </CharString>
          <CharString index="249">
            561.99 return
          </CharString>
          <CharString index="250">
            -117.99 return
          </CharString>
          <CharString index="251">
            -66.01 return
          </CharString>
          <CharString index="252">
            194 -171 107 callgsubr
            -247.99 60 vhcurveto
            return
          </CharString>
          <CharString index="253">
            rmoveto
            133 callsubr
            68 158 callsubr
            hlineto
            return
          </CharString>
          <CharString index="254">
            93 callsubr
            839 -107 callgsubr
            vstem
            return
          </CharString>
          <CharString index="255">
            -78 callgsubr
            124 callgsubr
            59 return
          </CharString>
          <CharString index="256">
            -49 callgsubr
            -25 24 return
          </CharString>
          <CharString index="257">
            111 334.01001 111 return
          </CharString>
          <CharString index="258">
            41 -45 callgsubr
            vhcurveto
            return
          </CharString>
          <CharString index="259">
            59 vstem
            124 callgsubr
            return
          </CharString>
          <CharString index="260">
            hstem
            -55 callgsubr
            54 return
          </CharString>
          <CharString index="261">
            hvcurveto
            15 callgsubr
            return
          </CharString>
          <CharString index="262">
            hstem
            73 callgsubr
            return
          </CharString>
          <CharString index="263">
            -293.99 return
          </CharString>
          <CharString index="264">
            -55.99 return
          </CharString>
          <CharString index="265">
            10.02 return
          </CharString>
          <CharString index="266">
            -102.01 return
          </CharString>
          <CharString index="267">
            444.99 return
          </CharString>
          <CharString index="268">
            -218 vlineto
            -380 return
          </CharString>
          <CharString index="269">
            -233.99 return
          </CharString>
          <CharString index="270">
            125.99 return
          </CharString>
          <CharString index="271">
            -259.01 -379.99 hvcurveto
            -218 vlineto
            return
          </CharString>
          <CharString index="272">
            -182 409.98 hstem
            200 callgsubr
            54 return
          </CharString>
          <CharString index="273">
            hstem
            87 -107 callgsubr
            756.98999 54 vstem
            return
          </CharString>
          <CharString index="274">
            719.99 vlineto
            778.02 vlineto
            -424 return
          </CharString>
          <CharString index="275">
            177 callgsubr
            234.99 return
          </CharString>
          <CharString index="276">
            -285 -30 -164.99 -127 -270 hhcurveto
            return
          </CharString>
          <CharString index="277">
            0 28 callgsubr
            return
          </CharString>
          <CharString index="278">
            206.99 259.01 hvcurveto
            64 vlineto
            return
          </CharString>
          <CharString index="279">
            rmoveto
            95 76 72.01 98 98 -76 76 -95 return
          </CharString>
          <CharString index="280">
            -55 callsubr
            vlineto
            169 return
          </CharString>
          <CharString index="281">
            31 25 24 -103 callgsubr
            return
          </CharString>
          <CharString index="282">
            hstem
            239.98 54 vstem
            return
          </CharString>
          <CharString index="283">
            92 callgsubr
            vstem
            return
          </CharString>
          <CharString index="284">
            388 -20 -89 callgsubr
            return
          </CharString>
          <CharString index="285">
            -294.01 return
          </CharString>
          <CharString index="286">
            -120.02 return
          </CharString>
          <CharString index="287">
            129.99 return
          </CharString>
          <CharString index="288">
            565.99 return
          </CharString>
          <CharString index="289">
            170.99 return
          </CharString>
          <CharString index="290">
            307 143 callgsubr
            141 -310 vhcurveto
            return
          </CharString>
          <CharString index="291">
            196 callgsubr
            -103 callgsubr
            return
          </CharString>
          <CharString index="292">
            0 43 1081.01999 -95 callsubr
            return
          </CharString>
          <CharString index="293">
            30 callsubr
            190 callsubr
            return
          </CharString>
          <CharString index="294">
            326.98 423 423.02 return
          </CharString>
          <CharString index="295">
            vstem
            42 callgsubr
            return
          </CharString>
          <CharString index="296">
            -102 callgsubr
            hvcurveto
            endchar
          </CharString>
          <CharString index="297">
            -107 callgsubr
            hstemhm
            return
          </CharString>
          <CharString index="298">
            169 217 282.99 274 return
          </CharString>
          <CharString index="299">
            132.01 1 callsubr
            return
          </CharString>
          <CharString index="300">
            1167.99 385.98 hstem
            return
          </CharString>
          <CharString index="301">
            -69 callsubr
            54 486.99 return
          </CharString>
          <CharString index="302">
            54 hstem
            180 callsubr
            return
          </CharString>
          <CharString index="303">
            vlineto
            307 -142 141 return
          </CharString>
          <CharString index="304">
            -103 callgsubr
            25 24 return
          </CharString>
          <CharString index="305">
            1392.99 return
          </CharString>
          <CharString index="306">
            -26.01 return
          </CharString>
          <CharString index="307">
            -14.01 return
          </CharString>
          <CharString index="308">
            -10.02 return
          </CharString>
          <CharString index="309">
            20.01 return
          </CharString>
          <CharString index="310">
            -43.99 return
          </CharString>
          <CharString index="311">
            -76.99 return
          </CharString>
          <CharString index="312">
            -18.99 return
          </CharString>
          <CharString index="313">
            18.99 return
          </CharString>
          <CharString index="314">
            -177.99 return
          </CharString>
          <CharString index="315">
            -189.99 return
          </CharString>
          <CharString index="316">
            -223 -33 callsubr
            hvcurveto
            -42 vlineto
            return
          </CharString>
          <CharString index="317">
            -235 -581 hvcurveto
            -168 vlineto
            -315 return
          </CharString>
          <CharString index="318">
            vhcurveto
            -290 -295 rlineto
            -44 vlineto
            endchar
          </CharString>
        <CharString name=".notdef">
          275 -555 185.99 90.01999 163 callsubr
          4 callgsubr
          140 callgsubr
          88.98 127.01 76 callgsubr
          161.99 199 callgsubr
          65 151.01001 60 90.98999 62.99 89.02 100 -73.01001 126 callsubr
          76 callgsubr
          126 callsubr
          91.99 96.99 92.02 70 88.98999 100 89.01001 181 hstemhm
          250.98 200 89.01001 76 callgsubr
          127 callsubr
          269.98 -88.98 76 callgsubr
          199 callgsubr
          207.99 hintmask 111111111011111110110000
          1106.98 2146 rmoveto
          -856 -2701 856 hlineto
          -207.99 2520 rmoveto
          -89 -178 -100 178 127 callsubr
          -448 76 callgsubr
          -10 callsubr
          100 -175 89 vlineto
          267.02 -348 rmoveto
          -189 178 -92 -448 281 vlineto
          -10 callsubr
          -92.02 rmoveto
          127 callsubr
          -97 76 callgsubr
          hlineto
          270.01 -165 rmoveto
          127 callsubr
          -178 -189 -270 89 -10 callsubr
          100 207 callsubr
          76 callgsubr
          vlineto
          hintmask 001011110100000110110000
          448 -162 rmoveto
          -269.98 -448 90.99 358.99 179 vlineto
          199 callgsubr
          -329.99 rmoveto
          -305.01 -448 305.01 89 -216 269.98 127 127 callsubr
          -61.99 -92.02 151 vlineto
          270.01 -467.01 rmoveto
          -304.98 -448 304.98 vlineto
          hintmask 111100000000000101010000
          358.99 127 callsubr
          rmoveto
          -269.98 -127.02 269.98 hlineto
          199 callgsubr
          -150.98 rmoveto
          -8 callsubr
          -86 vlineto
          -189 -125.99 rlineto
          275.01 -8 callsubr
          -448 4 callgsubr
          hlineto
          189 163 callsubr
          rlineto
          -189 4 callgsubr
          hlineto
          endchar
        </CharString>
        <CharString name=".null">
          -1076 endchar
        </CharString>
        <CharString name="A">
          -77 callgsubr
          hstem
          32.99 178 callgsubr
          vstem
          1129.98 hmoveto
          -101 callsubr
        </CharString>
        <CharString name="A.smcp">
          -84 callsubr
          hstem
          28 1001 vstem
          971 hmoveto
          -104 callsubr
        </CharString>
        <CharString name="AE">
          740 0 -107 callgsubr
          370.98999 53 254.01001 -107 callgsubr
          616.01 190 callsubr
          976.48 47.49 -16.99 46.51 hintmask 00000000
          hintmask 11110100
          1067.99 -58 callsubr
          -29 678.01 rlineto
          586 -107 callgsubr
          hlineto
          hintmask 11111000
          -588 hlineto
          22 callgsubr
          616.02 rlineto
          695.99 -107 callgsubr
          -698 hlineto
          -35 hlineto
          -43 hlineto
          -880.99 60 callgsubr
          65 hlineto
          256 424.98 rlineto
          hintmask 11110100
          627 hlineto
          18 -424.98 rlineto
          19 hlineto
          733 -107 callgsubr
          hlineto
          -1365.02 424 rmoveto
          hintmask 11111000
          554 921 39 -921 rlineto
          endchar
        </CharString>
        <CharString name="AE.smcp">
          477 0 -107 callgsubr
          291.98999 54 176.02 -107 callgsubr
          481 -61 callsubr
          751.98 54 vstem
          1484.98 1111 -27 callsubr
          -678.99 vlineto
          -30 hlineto
          -42.99 hlineto
          -713.01 58 callgsubr
          123 callgsubr
          hlineto
          210 205 callgsubr
          rlineto
          455.99 -345.99 24 hlineto
          709 -107 callgsubr
          -678.99 522.02 592 -107 callgsubr
          -592 481.01 hlineto
          -478 -711 rmoveto
          424 699 rlineto
          -699 vlineto
          endchar
        </CharString>
        <CharString name="Aacute">
          -77 callgsubr
          133 -26 callgsubr
          32.99 178 callgsubr
          vstem
          820.98 1855 9 callgsubr
          503.99 -1588.98 rmoveto
          -101 callsubr
        </CharString>
        <CharString name="Aacute.smcp">
          -84 callsubr
          192 callsubr
          28 1001 vstem
          738.98 1562.99 119 callgsubr
          -189 -266 rlineto
          60 hlineto
          427.01 -1297 rmoveto
          -104 callsubr
        </CharString>
        <CharString name="Acircumflex">
          -77 callgsubr
          323.01001 1 callgsubr
          32.99 178 callgsubr
          vstem
          610.97 1779 rmoveto
          187 49 callsubr
          704 -1582.98 rmoveto
          -101 callsubr
        </CharString>
        <CharString name="Acircumflex.smcp">
          -84 callsubr
          322.01 1 callgsubr
          28 1001 vstem
          529 1486.99 rmoveto
          186.99 -196 rlineto
          68.01 10 hlineto
          184 callgsubr
          -13.99 64 vlineto
          627.02 -1291 rmoveto
          -104 callsubr
        </CharString>
        <CharString name="Adieresis">
          -77 callgsubr
          175 callgsubr
          335.99 18 callsubr
          vstem
          390.98 1684.99 rmoveto
          -97 callsubr
          25 24 -103 callgsubr
          31 -25 25 -94 callgsubr
          -16 callsubr
          6 callsubr
          141 callgsubr
          -1684.99 rmoveto
          -101 callsubr
        </CharString>
        <CharString name="Adieresis.smcp">
          -84 callsubr
          227.99998 111 70 callsubr
          18 callsubr
          vstem
          308.98 198 callsubr
          rmoveto
          -13 callgsubr
          -47 callgsubr
          154 callsubr
          -79 callgsubr
          217 -1392.99 rmoveto
          -104 callsubr
        </CharString>
        <CharString name="Agrave">
          -77 callgsubr
          133 -26 callgsubr
          32.99 178 callgsubr
          vstem
          665.99 1588.98 -5 callgsubr
          523 -1588.98 rmoveto
          -101 callsubr
        </CharString>
        <CharString name="Agrave.smcp">
          -84 callsubr
          192 callsubr
          28 1001 vstem
          583.99 1297 rmoveto
          -188 266 -7 callsubr
          -266 rlineto
          446.02 -1297 rmoveto
          -104 callsubr
        </CharString>
        <CharString name="Aring">
          -77 callgsubr
          75 54 236.01001 -61 callsubr
          442.98 197 callgsubr
          vstem
          613.99 1530.98 172 callsubr
          105 callgsubr
          -75 -76 -98 -98 75 12 callgsubr
          77 callgsubr
          48 callsubr
          515.99 -1821 rmoveto
          -101 callsubr
        </CharString>
        <CharString name="Aring.smcp">
          -84 callsubr
          74.01 -107 callgsubr
          236.01 -61 callsubr
          360.98 197 callgsubr
          vstem
          531.99 1239 rmoveto
          95 callgsubr
          76 71.99 98 98 -76 76 -95.01 144 callgsubr
          106 callgsubr
          -76 -98 -98 162 callgsubr
          -71.99 19 callsubr
          hvcurveto
          290 vmoveto
          68 49 -49 -71 -69 -49 -47 -68 -68 -49 47 69 71 49 49 68 hvcurveto
          439.01 -1529 rmoveto
          -104 callsubr
        </CharString>
        <CharString name="Atilde">
          -77 callgsubr
          164 30 callsubr
          -61 callsubr
          300.99 41 callgsubr
          vstem
          477 1745 rmoveto
          106 callsubr
          -33 callgsubr
          -29 callsubr
          75 111 hvcurveto
          -71 callsubr
          -45 callgsubr
          vhcurveto
          652.99 -1745 rmoveto
          -101 callsubr
        </CharString>
        <CharString name="Atilde.smcp">
          -84 callsubr
          162.99998 30 callsubr
          -61 callsubr
          218.99 -102 callsubr
          528.98999 55 vstem
          395 1452.99 rmoveto
          106 callsubr
          25 48 callgsubr
          78 75 111 109 callgsubr
          -111.99 -36 123.99 -139 hhcurveto
          -99 -77 8 callsubr
          -45 callgsubr
          vhcurveto
          576 -1452.99 rmoveto
          -104 callsubr
        </CharString>
        <CharString name="B">
          159 0 -107 callgsubr
          665 54 629 190 callsubr
          -55 callgsubr
          54 750 -102 callsubr
          11.99998 54 hintmask 11110100
          802.98 753.99 rmoveto
          hintmask 11111000
          166.02 30 -22 callgsubr
          180 callsubr
          169 vvcurveto
          257 -181.99 116 178 callsubr
          vhcurveto
          -383 -76 callgsubr
          31 hlineto
          443.99 hlineto
          hintmask 11110100
          265.02 185 71 callsubr
          259.01 176.99 -140 152 -182 24 hvcurveto
          -220 648 rmoveto
          hintmask 11111000
          277.02 144 -106 -209 -213.02 -137.02 -100.99 -263.98 hvcurveto
          -349 629 hlineto
          hintmask 11110100
          420.99 -1348.01 rmoveto
          -420.99 665 431 hlineto
          257.99 128 -153 -167 -217 -151 -128 -245 hvcurveto
          endchar
        </CharString>
        <CharString name="B.smcp">
          -12 0 -107 callgsubr
          516.98999 54 485.01001 -102 callsubr
          67 callsubr
          635.01001 54 1.98999 54 hintmask 11110100
          704.98 604 rmoveto
          hintmask 11111000
          134 30 107 callsubr
          99.99 130 vvcurveto
          207 -156.02 94 -252.99 vhcurveto
          -334.01 -69 callsubr
          29 hlineto
          381.01 hlineto
          hintmask 11110100
          228.99 160 112.99 209 138 123 callsubr
          121.02 -151 23 hvcurveto
          -200.99 506 rmoveto
          hintmask 11111000
          233 122 -81 -162.02 -162.98 -117 -79.02 -221 hvcurveto
          -297 485.01 hlineto
          hintmask 11110100
          356 -1056.01 rmoveto
          -356 517 365 hlineto
          219.02 106.99 -117 -133.98 -168.02 -127 -98 -208 hvcurveto
          endchar
        </CharString>
        <CharString name="C">
          251 -20 54 1387.98 54 hstem
          143.99 -107 callgsubr
          937.99998 54 vstem
          1189.99 445.99 rmoveto
          -54 hlineto
          169 callsubr
          -48 callsubr
          -380 207 -258.98 320 292 197 151 315 30 vhcurveto
          endchar
        </CharString>
        <CharString name="C.smcp">
          65 -75 callsubr
          1089.00002 55 hstem
          122 -107 callgsubr
          795.98999 54 vstem
          1025.99 202 callgsubr
          rmoveto
          -54 hlineto
          -220 22 callgsubr
          -138 -101 -230 hhcurveto
          -39 callgsubr
          -305.99 179 -207.99 277 254.02 168 163 callsubr
          248 25.99 vhcurveto
          endchar
        </CharString>
        <CharString name="C.ss06">
          260 -85 callgsubr
          1389.99 195 callsubr
          54 vstem
          1235.99 445.99 rmoveto
          -54 hlineto
          -271.01 -40 -155 143 callgsubr
          -270.01 hhcurveto
          -319 -214 289 377 hvcurveto
          60 vlineto
          375.01 214 289 319 276.01 149 -157 -254 40 vhcurveto
          54 hlineto
          297.98 -40 -187 167.02 -292 hhcurveto
          -356 -231 -316 -404.01 hvcurveto
          -58 vlineto
          -403.99 231 -315.98 356 292 189 164.98 302 157 callgsubr
          vhcurveto
          endchar
        </CharString>
        <CharString name="Ccedilla">
          251 -445 49 265.01 141 callsubr
          66 54 -53 53 1387.98 54 hstemhm
          143.99 -107 callgsubr
          618.99998 55 264 54 hintmask 11101111
          670.99 34 rmoveto
          -48 callsubr
          -372 198 -255.98 309 -11.02 vhcurveto
          -23 -110.99 rlineto
          -23 callsubr
          150 callgsubr
          34 callsubr
          vhcurveto
          7 -49 rlineto
          175.99 183 callgsubr
          76 21 callsubr
          121 -88 39 -89 9.01 hvcurveto
          hintmask 11011111
          10 -63 callgsubr
          273 11 183 151 29 303 rlinecurve
          -54 hlineto
          hintmask 11101111
          169 callsubr
          endchar
        </CharString>
        <CharString name="Ccedilla.smcp">
          65 -443 49 265 141 callsubr
          68.01999 110 callgsubr
          55 hstemhm
          122 -107 callgsubr
          545.98999 55 195 54 hintmask 11101111
          577.99 97 callgsubr
          rmoveto
          -39 callgsubr
          -298 169.99 -204.98 264.01 -11 vhcurveto
          -23 123 callsubr
          rlineto
          124 -13 64.99 -23 -88 vvcurveto
          -99 -129.99 -41.98 -107 vhcurveto
          7 -49 rlineto
          176 109 76 114 121.02 -88 39 -89 8.99 hvcurveto
          hintmask 11011111
          158 callsubr
          69.02 125 callsubr
          10 155 163 callsubr
          25 237 rlinecurve
          -54 hlineto
          hintmask 11101111
          -220 22 callgsubr
          -138 -101 -230 hhcurveto
          endchar
        </CharString>
        <CharString name="D">
          264 0 -107 callgsubr
          1348 27 callsubr
          896 54 vstem
          602.99 15 callsubr
          -349 hlineto
          -40 callgsubr
          -20 callgsubr
          1348.01 111 callgsubr
        </CharString>
        <CharString name="D.smcp">
          76 0 -107 callgsubr
          1056 57 callsubr
          758.01001 -107 callgsubr
          vstem
          517 58 callsubr
          -293.01 hlineto
          -54 -69 callsubr
          -20 callsubr
          1056.01 139 callgsubr
        </CharString>
        <CharString name="D.ss06">
          298 0 -107 callgsubr
          1348 27 callsubr
          936 54 vstem
          582.98 15 callsubr
          -328.99 hlineto
          -40 callgsubr
          48 hlineto
          334.99 hlineto
          377.02 284 284 414.99 hvcurveto
          58 vlineto
          415 -284 284 -377.02 vhcurveto
          607.01 -757 rmoveto
          -378 -261 -267 -346.01 vhcurveto
          -328.99 1348.01 328.99 hlineto
          346.01 261 -267.02 -374.99 hvcurveto
          endchar
        </CharString>
        <CharString name="E">
          -60 callsubr
          hstem
          -55 callgsubr
          54 vstem
          1085.99 1402 -91 callsubr
        </CharString>
        <CharString name="E.smcp">
          -29 callgsubr
          134 callgsubr
          94 callsubr
          53.99 -87 callgsubr
        </CharString>
        <CharString name="Eacute">
          -60 callsubr
          132.99998 266.01 153 callsubr
          vstem
          827.99 1855 9 callgsubr
          453 -186.99 -91 callsubr
        </CharString>
        <CharString name="Eacute.smcp">
          40 callgsubr
          740.99 110 callsubr
          60 hlineto
          -322.01 -1243.01 -87 callgsubr
        </CharString>
        <CharString name="Ecircumflex">
          -60 callsubr
          323.01 56.99 153 callsubr
          vstem
          617.98 1779 146 callsubr
          162 callsubr
          78 callgsubr
          -230 -239 rlineto
          -14 64 vlineto
          653 -180.99 -91 callsubr
        </CharString>
        <CharString name="Ecircumflex.smcp">
          -29 callgsubr
          322.01 56.99 134 callgsubr
          530.98 1486.99 rmoveto
          160 callgsubr
          68 10 hlineto
          162 callsubr
          78 callgsubr
          -230.02 29 callsubr
          -122 -1237.01 -87 callgsubr
        </CharString>
        <CharString name="Edieresis">
          -60 callsubr
          229.01 111 153 callsubr
          89 -69 callgsubr
          334.01 111 vstem
          397.99 1684.99 25 callsubr
          -23.99 154 callgsubr
          -60 callgsubr
          -24 31 6 callsubr
          243 -283 -91 callsubr
        </CharString>
        <CharString name="Edieresis.smcp">
          -29 callgsubr
          227.99998 111 67 callsubr
          32.02 -69 callgsubr
          334 111 hintmask 00000000
          hintmask 11111110
          310.98 198 callsubr
          rmoveto
          31.01 -86 callgsubr
          -94 callgsubr
          -31 -23.98 68 callsubr
          -31 96 callgsubr
          -24 31 hvcurveto
          445.01 hmoveto
          39 callgsubr
          -31 24 -24 31 hvcurveto
          hintmask 11101000
          -532.01 -1339 -87 callgsubr
        </CharString>
        <CharString name="Egrave">
          -60 callsubr
          132.99998 266.01 153 callsubr
          vstem
          672.99 1588.98 rmoveto
          -188 31 callsubr
          144 callsubr
          hlineto
          195.02 -36 callsubr
          472 -186.99 -91 callsubr
        </CharString>
        <CharString name="Egrave.smcp">
          40 callgsubr
          585.99 1297 rmoveto
          -188 81 callgsubr
          -303 -1243.01 -87 callgsubr
        </CharString>
        <CharString name="Eth">
          264 0 -107 callgsubr
          659 54 635 27 callsubr
          896 54 vstem
          602.99 15 callsubr
          -349 hlineto
          -54 -688.99 -140 -54 140 -712.99 -20 callgsubr
          659 392.99 54 -392.99 635 111 callgsubr
        </CharString>
        <CharString name="Eth.smcp">
          76 0 -107 callgsubr
          510.98999 54 491.01001 57 callsubr
          758.01001 -107 callgsubr
          vstem
          517 58 callsubr
          -293.01 hlineto
          -54 -546 -192.98 -54 192.98 -564.98 -20 callsubr
          511 340.01 54 -340.01 491.01 139 callgsubr
        </CharString>
        <CharString name="Euro">
          45 -85 callgsubr
          550.98 55 191.01001 -89 callgsubr
          535.99998 54 hstem
          276.99 54 vstem
          809.98 1421.99 rmoveto
          -8 callgsubr
          77 -9 callsubr
          -21.02 -63 callgsubr
          hvcurveto
          58 vlineto
          19 -76 -69 12 -77 hhcurveto
          -315 -217.99 -189 -365 hvcurveto
          -36 -205 -56 205 -191 -205 -55 205 -49.99 vlineto
          -365.02 220 -189.97 315 76 76 11 19.98 68 vhcurveto
          57 vlineto
          -22 -68 callgsubr
          -76 -12 -77 hhcurveto
          -292 35 callgsubr
          174 327 hvcurveto
          -25 callgsubr
          454.99 55 -454.99 191 454.99 56 -454.99 38 vlineto
          333.99 186.99 164 292 vhcurveto
          endchar
        </CharString>
        <CharString name="Euro.smcp">
          -154 -85 callgsubr
          407.99 -107 callgsubr
          156.01 -107 callgsubr
          422.01 54 hstem
          94 callsubr
          54 vstem
          646.98 1126.99 rmoveto
          -8 callgsubr
          -63 callgsubr
          -14 -21 -45 callgsubr
          hvcurveto
          58 vlineto
          19 -76 -59 12 -77 hhcurveto
          -262 -142.99 -181 -295.02 -16 hvcurveto
          -186 -87 callsubr
          183.99 -4.02 hlineto
          -133 vlineto
          -19 -183.99 -87 callsubr
          186.98 vlineto
          -286 202 callsubr
          144 -175.98 258.01 hhcurveto
          76 66 11 19.98 68 hvcurveto
          57 vlineto
          -22 -67.01 -34 callgsubr
          -12 -77 hhcurveto
          -234 -116 159 249 -18 hvcurveto
          452.01 -107 callgsubr
          -455 19 hlineto
          135 vlineto
          2 455 -107 callgsubr
          -454 vlineto
          264.01 13.99 21 callsubr
          158 239.99 hhcurveto
          endchar
        </CharString>
        <CharString name="F">
          96 0 43 672.98 56 630.01001 27 callsubr
          vstem
          13 callgsubr
          1402 -27 callsubr
          -848 119 callsubr
          54 715.98 746 56 -746 630 hlineto
          endchar
        </CharString>
        <CharString name="F.smcp">
          -71 0 43 521.98 55 490.01001 57 callsubr
          vstem
          944.99 1110 rmoveto
          -102 callsubr
          -721 vlineto
          118 callsubr
          564.98 633 55 -633 490 hlineto
          endchar
        </CharString>
        <CharString name="G">
          330 -20 54 570.99 -102 callsubr
          761.99998 54 hstem
          -1 callsubr
          949.99998 54 vstem
          1225.99 51 callgsubr
          -45 -160 -88 -238 hhcurveto
          -308 -199 243 343 hvcurveto
          240 vlineto
          327.99 193 234 297 303 125.01 -170 208 callsubr
          29.99 vhcurveto
          54 hlineto
          233 -27 -170 181 -315 hhcurveto
          -321 -222.99 -251 -367 hvcurveto
          -238 vlineto
          -380.01 228.99 -259.98 332 284 166 109.99 123 callgsubr
          47 vhcurveto
          endchar
        </CharString>
        <CharString name="G.smcp">
          132 -75 callsubr
          442.99 54 592.01001 55 hstem
          71 callsubr
          53 805.98999 54 vstem
          1054.99 128.98 rmoveto
          405.02 -431 -54 377 -328.99 vlineto
          -45.02 -39 -132 -69 -203 hhcurveto
          -262 -170 78 callsubr
          275.01 hvcurveto
          178 vlineto
          262 163 184 20 callsubr
          257 106 -132 -148 25 vhcurveto
          54 hlineto
          189 -24 -146 146 -272.02 hhcurveto
          -278 -191 -202.02 -300.99 hvcurveto
          -176 82 callgsubr
          198 -49 callsubr
          287.01 246.99 140 89.98 -102 callsubr
          41 vhcurveto
          endchar
        </CharString>
        <CharString name="G.ss06">
          352 -85 callgsubr
          571.99 -102 callsubr
          761.99998 195 callsubr
          54 1009.98999 54 vstem
          1247.99 51 callgsubr
          -42.99 -153 -89 -227 hhcurveto
          -356 -231 308 379 hvcurveto
          40 vlineto
          363.99 209 298 321 315.99 131 -170 208 callsubr
          31 vhcurveto
          -107 callgsubr
          hlineto
          233 -28 -176.99 181 -327 hhcurveto
          -345 -239 -315 -403 hvcurveto
          -38 vlineto
          -416.01 261 -324.97 380.01 273 159 -69 callgsubr
          123 callgsubr
          141 callsubr
          vhcurveto
          endchar
        </CharString>
        <CharString name="H">
          362 0 43 678.98 54 639.04 56 callgsubr
          929.98999 54 vstem
          1183.99 15 callsubr
          -680 -930 680 -40 callgsubr
          54 721.98 930 -721.98 54 -64 callgsubr
          vlineto
          endchar
        </CharString>
        <CharString name="H.smcp">
          162 0 43 506.99 54 520.02998 40.96 90 callsubr
          789 54 vstem
          1012.98 58 callsubr
          -560.99 -789 560.99 118 callsubr
          549.99 789 -549.99 54 -57 callgsubr
          vlineto
          endchar
        </CharString>
        <CharString name="I">
          -2 callgsubr
          175 callsubr
          141 callgsubr
          hmoveto
          11 callgsubr
        </CharString>
        <CharString name="I.smcp">
          -2 callsubr
          hstem
          202.99 -107 callgsubr
          vstem
          256.98 hmoveto
          -57 callgsubr
          -87 callsubr
          -69 callsubr
          vlineto
          endchar
        </CharString>
        <CharString name="Iacute">
          -2 callgsubr
          133 266.01 175 callsubr
          410.99 1855 99 callgsubr
          -1855 rmoveto
          11 callgsubr
        </CharString>
        <CharString name="Iacute.smcp">
          -2 callsubr
          132.01001 1 callsubr
          202.99 -107 callgsubr
          vstem
          372.98 136 callsubr
          35 callgsubr
          87 callsubr
          -182 -1562.99 rmoveto
          -57 callgsubr
          -87 callsubr
          -69 callsubr
          vlineto
          endchar
        </CharString>
        <CharString name="Icircumflex">
          -2 callgsubr
          323.01001 56.99 175 callsubr
          521.99 1593 rmoveto
          -234 243 rlineto
          -40 hlineto
          -230 -239 rlineto
          -14 61 callgsubr
          -228 -1582.98 rmoveto
          11 callgsubr
        </CharString>
        <CharString name="Icircumflex.smcp">
          -2 callsubr
          322.01001 1 callgsubr
          202.99 -107 callgsubr
          vstem
          483.98 1300.99 rmoveto
          -18 callgsubr
          185 196 187 -196 rlineto
          68 hlineto
          -227 -1291 rmoveto
          -57 callgsubr
          -87 callsubr
          -69 callsubr
          vlineto
          endchar
        </CharString>
        <CharString name="Idieresis">
          -2 callgsubr
          175 callgsubr
          -8 111 136.98 54 143 111 vstem
          46.98 1795.99 rmoveto
          -16 callsubr
          174 callsubr
          31 -25 25 -31 154 callsubr
          -16 callgsubr
          31 -88 callgsubr
          -31 hvcurveto
          -198 -1795.99 rmoveto
          11 callgsubr
        </CharString>
        <CharString name="Idieresis.smcp">
          -2 callsubr
          228 111 hstem
          -45.99 -69 callgsubr
          138.00002 -107 callgsubr
          142.01 111 vstem
          8.99 1503.99 rmoveto
          -47 callgsubr
          -66 callsubr
          hvcurveto
          160 callsubr
          hmoveto
          -47 callgsubr
          -13 callgsubr
          hvcurveto
          -197 -1503.99 rmoveto
          -57 callgsubr
          -87 callsubr
          -69 callsubr
          vlineto
          endchar
        </CharString>
        <CharString name="Igrave">
          -2 callgsubr
          133 266.01 175 callsubr
          321.98 1588.98 -5 callgsubr
          -97 callsubr
          -1588.98 rmoveto
          11 callgsubr
        </CharString>
        <CharString name="Igrave.smcp">
          -2 callsubr
          132.01001 1 callsubr
          202.99 -107 callgsubr
          vstem
          284 1297 rmoveto
          -188 81 callgsubr
          31.99 -1297 rmoveto
          -57 callgsubr
          -87 callsubr
          -69 callsubr
          vlineto
          endchar
        </CharString>
        <CharString name="J">
          49 56 callsubr
          93 callsubr
          732 54 vstem
          875.99 15 callsubr
          -1013.99 vlineto
          -269 -166 -139 161 callgsubr
          -243 -123 -54 callgsubr
          236 vhcurveto
          -54 hlineto
          -285 163 -136 257 237 183 163 299 vhcurveto
          1013.99 vlineto
          endchar
        </CharString>
        <CharString name="J.smcp">
          -109 -17 callgsubr
          hstem
          75 -107 callgsubr
          617.98999 55 vstem
          746.99 58 callsubr
          -829.99 vlineto
          -185 -130 123 callsubr
          -168.98 -205 -114.02 101 182.99 vhcurveto
          -87 callsubr
          hlineto
          -227.99 151 -108.99 222 204.98 149.02 132.97 218 vhcurveto
          829.99 vlineto
          endchar
        </CharString>
        <CharString name="K">
          224 0 43 1372.01999 170 callgsubr
          178 callgsubr
          hmoveto
          70 hlineto
          -698 803.98 647.99 652 rlineto
          14 callgsubr
          hlineto
          -606 -608.99 -238 -232 rlineto
          840.99 -40 callgsubr
          54 550.99 vlineto
          233 215 rlineto
          endchar
        </CharString>
        <CharString name="K.alt">
          224 0 43 667.98 53 651.04 170 callgsubr
          178 callgsubr
          hmoveto
          71 hlineto
          -690.01 729.99 644.01 726 rlineto
          -71 hlineto
          -618 -692 rlineto
          -238 692 -40 callgsubr
          54 710.98 223 hlineto
          endchar
        </CharString>
        <CharString name="K.alt2">
          224 0 43 667.98 36 668.04 170 callgsubr
          1065.98 hmoveto
          81 hlineto
          -819 730.99 773 724.99 rlineto
          -81 hlineto
          -754 -709 rlineto
          -12 709 -40 callgsubr
          54 710.98 13 hlineto
          endchar
        </CharString>
        <CharString name="K.smcp">
          40 87 callgsubr
          169.98 54 vstem
          988 hmoveto
          71.99 hlineto
          -598 645.98 548 519 rlineto
          -76 hlineto
          -510 -479.99 -200 -185 rlineto
          664.99 118 callsubr
          433.99 vlineto
          -34 callsubr
          173 rlineto
          endchar
        </CharString>
        <CharString name="L">
          -19 0 -107 callgsubr
          1361.02998 -85 callsubr
          -55 callgsubr
          55 vstem
          255 -58 callsubr
          1402 -55 -76 callgsubr
          202 callsubr
          vlineto
          781.99 -107 callgsubr
          hlineto
          endchar
        </CharString>
        <CharString name="L.smcp">
          -164 0 -107 callgsubr
          1070.02998 40.96 134 callgsubr
          94 callsubr
          -58 callsubr
          1111 -54 -69 callsubr
          24 vlineto
          670 -107 callgsubr
          hlineto
          endchar
        </CharString>
        <CharString name="M">
          680 0 43 -43 78.99 1296.98999 79.99 hstemhm
          -55 callgsubr
          54 1247.98999 54 hintmask 10111000
          1555.99 15 callsubr
          -78.99 hlineto
          hintmask 01111000
          -601 -1376.99 -599 1376.99 rlineto
          -23 hlineto
          -40 callgsubr
          54 1368.99 hlineto
          601 -1368.99 rlineto
          -37 callgsubr
          hlineto
          604 1375.99 rlineto
          -1375.99 54 vlineto
          endchar
        </CharString>
        <CharString name="M.smcp">
          436 0 43 -43 163 callgsubr
          1008 75 67 callsubr
          1063 54 hintmask 10111000
          1340.99 58 callsubr
          -77 hlineto
          hintmask 01111000
          -509.99 -1083 -509.01 1083 rlineto
          -22 hlineto
          -53 -69 callsubr
          54 548.99 hlineto
          -1 537 510.01 -1085.99 rlineto
          -37 callgsubr
          hlineto
          512 1089.99 -1 -541 rlineto
          -548.99 54 vlineto
          endchar
        </CharString>
        <CharString name="N">
          74 callgsubr
          hstemhm
          -55 callgsubr
          55 939.98999 54 hintmask 10011100
          1248.99 hmoveto
          -64 callgsubr
          -54 vlineto
          hintmask 01011100
          99 callsubr
          hintmask 10101100
          116 callsubr
        </CharString>
        <CharString name="N.smcp">
          73 callsubr
          67 callsubr
          798.01001 54 hintmask 10011100
          1076 hmoveto
          -57 callgsubr
          -54 vlineto
          hintmask 01011100
          98 callsubr
          hintmask 10101100
          211 callgsubr
        </CharString>
        <CharString name="Ntilde">
          74 callgsubr
          164 186 callsubr
          -55 callgsubr
          55 159.98999 55 529.01001 -102 callsubr
          140.99998 54 hintmask 1001111111000000
          1053.98 1805.99 rmoveto
          -83 callgsubr
          hlineto
          -83.99 -55 -47 -34 callgsubr
          vhcurveto
          -112 149 callgsubr
          55 hlineto
          72 callgsubr
          -107 callgsubr
          151 callsubr
          118 -98 callgsubr
          -45 callsubr
          144.02 hhcurveto
          98 96 callsubr
          75 111 hvcurveto
          195 -1805.99 rmoveto
          -64 callgsubr
          -54 vlineto
          hintmask 0101111111000000
          99 callsubr
          hintmask 1010111111000000
          116 callsubr
        </CharString>
        <CharString name="Ntilde.smcp">
          73 callsubr
          163 186 callsubr
          169.98 54 89.01001 41 callgsubr
          70.01001 54 hintmask 1001111111000000
          951.99 1513.98 rmoveto
          -31 callsubr
          -35.99 -23 callsubr
          -139.02 hhcurveto
          -99 204 callsubr
          -69 -110 108 callgsubr
          118 25 -29 callsubr
          75 111 hvcurveto
          124 -1513.98 rmoveto
          -57 callgsubr
          -54 vlineto
          hintmask 0101111111000000
          98 callsubr
          hintmask 1010111111000000
          211 callgsubr
        </CharString>
        <CharString name="O">
          -22 callsubr
          -54 callsubr
          1230.99 618.99 -106 callgsubr
        </CharString>
        <CharString name="O.smcp">
          51 callsubr
          1060.99 501.99 -107 callsubr
        </CharString>
        <CharString name="O.ss06">
          23 callsubr
          58 vlineto
          416.01 -245 304 -334.99 -334 -244 -304 -416.01 vhcurveto
          -58 131 callsubr
          335.01 243 303.98 415.99 vhcurveto
          -54 60 rmoveto
          -60 vlineto
          -378 -209.98 -287.99 -314.02 -312 -212.99 287.99 378 vhcurveto
          60 vlineto
          376 210.99 288.01 312.01 314 211.99 -288.01 -376 vhcurveto
          endchar
        </CharString>
        <CharString name="OE">
          797 -85 callgsubr
          -33 -107 callgsubr
          667.98999 54 626.01001 -107 callgsubr
          -34.00002 54 hstemhm
          111.98 54 749 54 hintmask 01110110
          1800.99 1402 -27 callsubr
          -840.01 vlineto
          hintmask 10101110
          11 -100.99 -114.02 9.01 -117 hhcurveto
          -307 -210 -243 -353.02 hvcurveto
          -303.98 vlineto
          -353.02 212 -243.98 307 vhcurveto
          hintmask 01110110
          117 112 11 9.99 126 callgsubr
          hvcurveto
          840.01 91 callgsubr
          668 729.99 54 -729.99 626.01 hlineto
          hintmask 10101110
          -803 -826 rmoveto
          305.99 vlineto
          322.99 181 217 281.99 vhcurveto
          hintmask 10110110
          102.01 97 -2 -11 87 hvcurveto
          -1362 vlineto
          -10 -84.99 -105 -4 -94 hhcurveto
          hintmask 10101110
          -281.99 -183 227 316.01 hvcurveto
          endchar
        </CharString>
        <CharString name="Oacute">
          -22 callsubr
          134.01001 265.99 -54 callsubr
          819 1875.99 rmoveto
          -189 87 callsubr
          346.01 -1257 -106 callgsubr
        </CharString>
        <CharString name="Oacute.smcp">
          -77 callsubr
          116 265.99 168 callgsubr
          726 136 callsubr
          -189 87 callsubr
          269 -1061 -107 callsubr
        </CharString>
        <CharString name="Ocircumflex">
          -22 callsubr
          324 56.99 -54 callsubr
          930 1613.99 rmoveto
          -234 243 rlineto
          -40 hlineto
          -230 75 callsubr
          301 -985 -106 callgsubr
        </CharString>
        <CharString name="Ocircumflex.smcp">
          -77 callsubr
          306 56.99 168 callgsubr
          837 1300.99 rmoveto
          11 callsubr
          -230.02 75 callsubr
          94 callsubr
          -789.01 -107 callsubr
        </CharString>
        <CharString name="Odieresis">
          -22 callsubr
          230 111 -15 callsubr
          212.01 18 callsubr
          221 54 vstem
          454.98 1816.99 rmoveto
          -102 callgsubr
          86 callgsubr
          -24 41 callsubr
          24 31 -97 callsubr
          -25 -98 callgsubr
          -94 callgsubr
          154 callsubr
          -31 86 callgsubr
          -24 31 66 callsubr
          31 -97 callsubr
          81 callsubr
          -102 callgsubr
          hvcurveto
          331 -1198 -106 callgsubr
        </CharString>
        <CharString name="Odieresis.smcp">
          -77 callsubr
          211.98999 111 153 callgsubr
          139 18 callsubr
          145 53 vstem
          361.98 1503.99 rmoveto
          -47 callgsubr
          31.01 -62 callsubr
          -94 callgsubr
          154 callsubr
          26 callsubr
          -17 callsubr
          hvcurveto
          254 -1002 -107 callsubr
        </CharString>
        <CharString name="Ograve">
          -22 callsubr
          134.01001 265.99 -54 callsubr
          729.99 1609.99 rmoveto
          -188 266 -7 callsubr
          -266 rlineto
          560 -991 -106 callgsubr
        </CharString>
        <CharString name="Ograve.smcp">
          -77 callsubr
          116 265.99 168 callgsubr
          636.99 1297 rmoveto
          -188 266 -7 callsubr
          -266 rlineto
          483 -795.01 -107 callsubr
        </CharString>
        <CharString name="Oslash">
          -22 callsubr
          -54 callsubr
          1239.98 1495 119 callgsubr
          -111 -175 rlineto
          99 -95 -130 57 -157 hhcurveto
          -333.99 -214 164 callsubr
          -205.99 63 -170 111 123 callsubr
          vhcurveto
          -130 -204.98 rlineto
          123 callgsubr
          hlineto
          106 166.99 rlineto
          12 callgsubr
          76 callgsubr
          113 -39.99 132 hhcurveto
          335.01 213 258.98 380 hvcurveto
          218 vlineto
          176.99 -47 151 -83 110 vhcurveto
          -913 -656 rmoveto
          220 vlineto
          341.02 181 241.99 312 149 12 callsubr
          -83 callgsubr
          -93 85.01 vhcurveto
          -697 -1097.01 rlineto
          -97.02 104 -52 154 183.99 vvcurveto
          989 220 rmoveto
          -220 vlineto
          -343 -180 -241.99 -314 -123 79 callsubr
          97 callgsubr
          -45 callgsubr
          -80 vhcurveto
          692 1089 rlineto
          70 -100 97 callgsubr
          -134 -154 vvcurveto
          endchar
        </CharString>
        <CharString name="Oslash.smcp">
          51 callsubr
          936 1032.99 rmoveto
          121 182 rlineto
          -56 hlineto
          -98 -148 rlineto
          126 callsubr
          -81 34 callsubr
          41 -128 hhcurveto
          -289.02 -183.99 -208.02 -310.98 hvcurveto
          -160 vlineto
          -167 54 -138 77 callsubr
          -91.02 vhcurveto
          -121 -180.98 rlineto
          56 hlineto
          100 150.98 rlineto
          -58.99 77 99 -32.99 114 hhcurveto
          289.01 184 206.99 310.99 hvcurveto
          160 vlineto
          152.99 -45 128 -80 4 callgsubr
          vhcurveto
          -768 -531 rmoveto
          162 vlineto
          274 -55 callsubr
          188 265.01 12 callsubr
          77 callgsubr
          -37 -34 callgsubr
          70.99 vhcurveto
          -580 -871.02 rlineto
          -81 82 203 callsubr
          121 147 vvcurveto
          839.99 hmoveto
          -275.99 -152.99 -188 -267.02 -105 -87 30 52 -68 vhcurveto
          578 868 rlineto
          65.99 -81 36 -111 -132.02 vvcurveto
          endchar
        </CharString>
        <CharString name="Otilde">
          -22 callsubr
          165 120 callsubr
          -15 callsubr
          177.01 41 callgsubr
          173 54 vstem
          1003.99 1826.98 rmoveto
          -31 callsubr
          -35.99 52 callsubr
          -102 callsubr
          hlineto
          84 54 151 callsubr
          106 callsubr
          -33 callgsubr
          -29 callsubr
          162 callgsubr
          -69 callgsubr
          hvcurveto
          227 -1207.99 -106 callgsubr
        </CharString>
        <CharString name="Otilde.smcp">
          -77 callsubr
          146.98999 30 callsubr
          53.99 153 callgsubr
          104 41 callgsubr
          97 53 vstem
          910.99 1513.98 rmoveto
          -71 callsubr
          67.02 vhcurveto
          106 callsubr
          25 -29 callsubr
          75 111 hvcurveto
          150 -1012 -107 callsubr
        </CharString>
        <CharString name="P">
          154 0 43 571.99 54 733 27 callsubr
          816.98999 54 vstem
          654.99 15 callsubr
          -455 -76 callgsubr
          54 614.99 401 hlineto
          310.99 159 158.99 257 256 103 callsubr
          169 -310 hvcurveto
          -786.99 vmoveto
          -401 733 401 hlineto
          141 callgsubr
          122 -167.02 -205.99 -198 -122 -162 156 callsubr
          hvcurveto
          endchar
        </CharString>
        <CharString name="P.smcp">
          -15 0 43 443.99 -102 callsubr
          568.01 57 callsubr
          694.01001 -102 callsubr
          vstem
          181 callsubr
          58 callsubr
          -396 194 callsubr
          342 hlineto
          268 139 127 208 205 -140 137.99 -267 hvcurveto
          -623 vmoveto
          -342 568.02 342 hlineto
          249 103.02 -130 -159 -155 -103.02 -124 -249 hvcurveto
          endchar
        </CharString>
        <CharString name="Q">
          -22 callsubr
          -54 callsubr
          1230.99 618.99 rmoveto
          218 vlineto
          379.99 -215 259.01 -335.01 -333.99 -214 -259.01 -379.99 vhcurveto
          161 callsubr
          216 -258.98 333.99 -45 callgsubr
          62 158 callsubr
          19.98 57 vhcurveto
          283.02 -272.99 38.99 35 -267 260.99 rlineto
          193 95 callgsubr
          114 212.99 278 vvcurveto
          -548 -584.99 rmoveto
          -311.99 -183 241.99 343 hvcurveto
          220 vlineto
          341.02 181 241.99 312 314 182 -241.99 -341.02 vhcurveto
          -220 vlineto
          -343 -180 -241.99 -314 vhcurveto
          endchar
        </CharString>
        <CharString name="Q.smcp">
          -77 callsubr
          hstem
          112.99 55 838.98999 54 vstem
          1060.99 501.99 rmoveto
          160 vlineto
          310.98 -186 208.02 -289 -288.01 -185 -208.02 -310.98 vhcurveto
          -160 82 callgsubr
          187 -49 callsubr
          287 57 54 7.99 15.99 47.99 vhcurveto
          245 -215.98 38 97 callgsubr
          -225.02 200.99 rlineto
          162 -8 callgsubr
          95 170 94 callsubr
          vvcurveto
          -473.99 -464 rmoveto
          -264 -155 188 275.99 hvcurveto
          162 vlineto
          274 -55 callsubr
          188 264 266 155 -188 -274 vhcurveto
          -162 vlineto
          -275.99 -152.99 -188 -267 vhcurveto
          endchar
        </CharString>
        <CharString name="Q.ss06">
          23 callsubr
          48 vlineto
          416.01 -245 314 -334.99 -334 -244 -314 -416.01 vhcurveto
          -48 131 callsubr
          74.01 70 14.99 28 64 vhcurveto
          313 -264.99 39 35 -298.99 256.98 rlineto
          192.99 113.01 124 239.99 297 vvcurveto
          -578 -665.99 rmoveto
          -312 -212.99 287.01 378.98 hvcurveto
          50 vlineto
          377 210.99 297 312.01 314 211.99 -297 -377 vhcurveto
          -50 vlineto
          -378.98 -209.98 -287.01 -314.02 vhcurveto
          endchar
        </CharString>
        <CharString name="R">
          264 0 43 579.98 54 725.01001 -61 callsubr
          -34 callsubr
          54 833.98999 54 vstem
          808.98 636.99 rmoveto
          183 34 145 158 207 vvcurveto
          271.01 -200 148.99 -278 186 callgsubr
          622.98 505 hlineto
          386.99 -622.98 rlineto
          57.02 13.99 hlineto
          -949 663 rmoveto
          725.01 409.99 vlineto
          258.01 105 callsubr
          -137 -229 -180.99 -126 -178 -249 hvcurveto
          endchar
        </CharString>
        <CharString name="R.alt">
          264 -1 -98 callgsubr
          658.98999 54 664.01001 190 callsubr
          -34 callsubr
          54 827.98999 54 -48 54 12 53 hintmask 11111000
          1130.99 233.98 rmoveto
          137.02 vlineto
          182 callsubr
          -68 callgsubr
          132.02 -220.02 97 callgsubr
          vhcurveto
          hintmask 11110100
          190 42 103 157 155 vvcurveto
          258 -173 132 -305.01 186 callgsubr
          683.99 443 hlineto
          hintmask 11111000
          254 -54 callgsubr
          -118 -196 hvcurveto
          -133 vlineto
          -100 25 -82 47 -83 callgsubr
          vhcurveto
          hintmask 11111010
          53 24.98 hlineto
          hintmask 11111000
          -53 49 -18 78 82.99 vvcurveto
          hintmask 11110100
          -482 503.01 rmoveto
          -400 664 409.99 hlineto
          285 139 179 callsubr
          -216 94 callgsubr
          20 callgsubr
          -162 -321 hvcurveto
          endchar
        </CharString>
        <CharString name="R.smcp">
          71 0 43 443.99 54 569 -102 callsubr
          hstem
          105 callsubr
          54 704 -102 callsubr
          vstem
          700.99 500 rmoveto
          157 29.99 121 126.01 162 vvcurveto
          218.99 -170.99 128 -242 vhcurveto
          -400 194 callsubr
          426.99 hlineto
          327 -486.99 rlineto
          57 9.99 hlineto
          -810.99 531 rmoveto
          569 205 callgsubr
          vlineto
          220 138.02 -115.02 -176.99 -141 -107.01 203 callgsubr
          -211.99 hvcurveto
          endchar
        </CharString>
        <CharString name="S">
          135 -20 54 1387.98 54 hstemhm
          19 callsubr
          54 -7 54 860 54 -39.01001 55 hintmask 11010100
          622.98 717.99 rmoveto
          330.02 -89.99 12 callsubr
          -95 -184 vvcurveto
          -187 -182.99 -128 -256 vhcurveto
          hintmask 11100100
          -210 -273 86 291 hvcurveto
          -54 hlineto
          -326 288.02 -105 249 272 222 132.99 238 245 -202 99 -287 75 vhcurveto
          hintmask 11011000
          -348 4 callgsubr
          -93 106.99 155.02 vvcurveto
          158 -55 callsubr
          71 callsubr
          275 258.99 172 -161 -215 vhcurveto
          54 hlineto
          257 -202.02 173 -282.99 -275 -208 -134 -222 vhcurveto
          hintmask 11010100
          -234 182.99 -87 297 -81 vhcurveto
          endchar
        </CharString>
        <CharString name="S.smcp">
          -35 -75 callsubr
          1089.00002 132 callgsubr
          727 54 -42 55 hintmask 11010100
          535 181 callsubr
          rmoveto
          97 callsubr
          hintmask 11100100
          210 callgsubr
          -257 247 -87.98 215 235 190 72 callsubr
          78 callsubr
          145 callsubr
          hintmask 11011000
          74 callsubr
          166 callgsubr
          vhcurveto
          54 hlineto
          203 -173 143 -246 -237 -178 -111 179 callgsubr
          vhcurveto
          hintmask 11010100
          -186 157 -75 256 -64 vhcurveto
          endchar
        </CharString>
        <CharString name="T">
          148 0 43 1358.99 -61 callsubr
          584.99 54 vstem
          1169 15 callsubr
          -530 hlineto
          -584.01 -87 callsubr
          530 -1402 54 1402 530 hlineto
          endchar
        </CharString>
        <CharString name="T.smcp">
          -24 171 callgsubr
          498.99 -107 callgsubr
          vstem
          1004.99 58 callsubr
          -452.01 hlineto
          -506.99 -83 callgsubr
          453 -1110 -107 callgsubr
          1110 452.01 hlineto
          endchar
        </CharString>
        <CharString name="Thorn">
          143 0 43 290.98 54 701 54 272.04 56 callgsubr
          766.98999 54 vstem
          624.99 1142.99 rmoveto
          -371 313 -40 callgsubr
          54 333.99 371 hlineto
          291 159 171 233 232 -159 173 -291 hvcurveto
          -755 vmoveto
          -371 700.99 371 hlineto
          281 115 -180 -173 -165 -115 -182.99 -281 hvcurveto
          endchar
        </CharString>
        <CharString name="Thorn.smcp">
          -115 0 43 216.99 -102 callsubr
          568.01 -102 callsubr
          -83 callgsubr
          281.98 67 callsubr
          594.01001 -102 callsubr
          hintmask 11101100
          465.98 937.98 rmoveto
          -242 hlineto
          hintmask 11011100
          227 118 callsubr
          259.99 242 vlineto
          268 139 127 207.99 hvcurveto
          hintmask 11101100
          205 -139.99 138 -267.02 vhcurveto
          -623 vmoveto
          -242 568.02 242 hlineto
          249.02 103 -130 -159 -155 -103 -124 -249.02 hvcurveto
          endchar
        </CharString>
        <CharString name="U">
          -3 callsubr
          -5 callsubr
          1180 1455.98 -99 callsubr
        </CharString>
        <CharString name="U.smcp">
          -50 callgsubr
          -4 callgsubr
          1014.99 1164.98 -98 callsubr
        </CharString>
        <CharString name="Uacute">
          -3 callsubr
          133 266.01 -5 callsubr
          839.99 1855 rmoveto
          52 callgsubr
          195 31 callsubr
          274 -399.02 -99 callsubr
        </CharString>
        <CharString name="Uacute.smcp">
          -50 callgsubr
          132.01001 265.99 -4 callgsubr
          740.99 136 callsubr
          35 callgsubr
          -266 152 callgsubr
          195 266 rlineto
          208 -398.01 -98 callsubr
        </CharString>
        <CharString name="Ucircumflex">
          -3 callsubr
          323.01001 56.99 -5 callsubr
          950.99 1593 rmoveto
          33 callgsubr
          -14 64 vlineto
          185 158 callgsubr
          133 callsubr
          67.99 hlineto
          229 -127 -99 callsubr
        </CharString>
        <CharString name="Ucircumflex.smcp">
          -50 callgsubr
          322.01001 56.99 -4 callgsubr
          851.99 1300.99 rmoveto
          -234 243 rlineto
          -40 hlineto
          -229.99 115 callgsubr
          68 hlineto
          163 -126.02 -98 callsubr
        </CharString>
        <CharString name="Udieresis">
          -3 callsubr
          229.01001 111 43 callgsubr
          181.99998 150 callsubr
          149 54 vstem
          476 1795.99 rmoveto
          -16 callgsubr
          197 callsubr
          -103 callgsubr
          31 -25 25 -102 callgsubr
          hvcurveto
          160 callsubr
          hmoveto
          -16 callsubr
          174 callsubr
          31 -25 25 -31 hvcurveto
          259.01 -340.01 -99 callsubr
        </CharString>
        <CharString name="Udieresis.smcp">
          -50 callgsubr
          228 111 hstem
          156.99 52.98 112.01 150 callsubr
          82.98999 54 vstem
          377 1503.99 rmoveto
          -27 callgsubr
          -31 24 -24 -97 callsubr
          -17 callsubr
          hvcurveto
          160 callsubr
          hmoveto
          -47 callgsubr
          -13 callgsubr
          hvcurveto
          193 -339 -98 callsubr
        </CharString>
        <CharString name="Ugrave">
          -3 callsubr
          133 266.01 -5 callsubr
          750.98 1588.98 rmoveto
          -187.99 31 callsubr
          144 callsubr
          hlineto
          195 -36 callsubr
          488 -133 -99 callsubr
        </CharString>
        <CharString name="Ugrave.smcp">
          -50 callgsubr
          132.01001 265.99 -4 callgsubr
          651.98 1297 rmoveto
          -187.99 81 callgsubr
          421.99 -132.02 -98 callsubr
        </CharString>
        <CharString name="V">
          147 0 -107 callgsubr
          1361.02998 -85 callsubr
          34.97 1154 vstem
          1129.98 15 callsubr
          -489 -1314 -29 -88 -29 88 -489 1314 rlineto
          -59 hlineto
          544.02 60 callgsubr
          14.99 hlineto
          51.02 hlineto
          543.99 69 callgsubr
          endchar
        </CharString>
        <CharString name="V.smcp">
          -20 0 -76 callsubr
          1067.02998 -85 callsubr
          29 997.99 vstem
          967.99 58 callsubr
          -414 -1027.99 22 callgsubr
          -80 -25 80 -414 1027.99 rlineto
          -59.99 hlineto
          467.99 58 callgsubr
          13 hlineto
          -43 callgsubr
          hlineto
          468.01 -57 callgsubr
          rlineto
          endchar
        </CharString>
        <CharString name="W">
          779 0 43 -43 -22 callgsubr
          1277.98999 88 -40.96 71 callgsubr
          -26 callsubr
          1731.99 hintmask 10011000
          1733.98 15 callsubr
          -300 -1125.99 rlineto
          hintmask 01011000
          122 callsubr
          -240 -65 240 -342 1125.99 rlineto
          -2 hlineto
          -58 hlineto
          -344 -1125.99 -66 -239 -34 callgsubr
          239 -302 1125.99 rlineto
          -60 hlineto
          393 60 callgsubr
          10.01 hlineto
          51 hlineto
          hintmask 10101000
          363.99 1213.99 50 -55 callsubr
          -25 callgsubr
          -153.99 361 -1213.99 rlineto
          1 hlineto
          60 hlineto
          391.99 69 callgsubr
          endchar
        </CharString>
        <CharString name="W.smcp">
          517 0 43 -43 163 callgsubr
          1000.01001 82.98 -40.95001 71 callgsubr
          104 callsubr
          1487.99 hintmask 10011000
          1483 58 callsubr
          hintmask 01011000
          -254.02 -883 157 callsubr
          -200 -56 158 callgsubr
          -290.02 886.99 rlineto
          3 callgsubr
          hlineto
          -54 hlineto
          156 callsubr
          -886.99 -55 -194 -83 callgsubr
          198 -255.02 883 rlineto
          -58.99 hlineto
          336 58 callgsubr
          8.99 hlineto
          49 hlineto
          hintmask 10101000
          310.99 951.99 41 130 349 -1082 rlineto
          3 hlineto
          56 hlineto
          334 -57 callgsubr
          rlineto
          endchar
        </CharString>
        <CharString name="X">
          147 46 callsubr
          -107 callgsubr
          1114 vstem
          610.97 785 rmoveto
          -470 670.99 rlineto
          122 callsubr
          hlineto
          503.99 -712.99 -523 -742.99 rlineto
          65 hlineto
          491.99 700.99 490 -700.99 rlineto
          -45 callgsubr
          hlineto
          -523 742.99 503.99 712.99 rlineto
          122 callsubr
          hlineto
          endchar
        </CharString>
        <CharString name="X.smcp">
          -21 87 callgsubr
          45.99 962.99 vstem
          125 callgsubr
          637.99 rmoveto
          -397 526.99 rlineto
          -68 callgsubr
          hlineto
          432 -571.99 -448 -593 rlineto
          64.99 hlineto
          415 546.97 417 -546.97 rlineto
          66 hlineto
          -448 593 431 571.99 rlineto
          122 callsubr
          hlineto
          endchar
        </CharString>
        <CharString name="Y">
          147 46 callsubr
          581.98 54 vstem
          608.99 601.99 17 callsubr
        </CharString>
        <CharString name="Y.smcp">
          -24 87 callgsubr
          496.98 55 vstem
          1019.99 1164.98 17 callgsubr
        </CharString>
        <CharString name="Yacute">
          147 27 callgsubr
          122 -26 callgsubr
          581.98 54 vstem
          750.98 1844 rmoveto
          35 callgsubr
          -266.02 134 callsubr
          31 callsubr
          -208 -1242.01 17 callsubr
        </CharString>
        <CharString name="Yacute.smcp">
          -24 185 callsubr
          132.01001 1 callsubr
          496.98 55 vstem
          732 110 callsubr
          80 callgsubr
          hlineto
          483 -132.02 17 callgsubr
        </CharString>
        <CharString name="Z">
          148 0 -107 callgsubr
          1348.98999 53 hstem
          93.98 1036 vstem
          168 -58 callsubr
          930 1364 rlineto
          157 callgsubr
          199 callsubr
          vlineto
          -938 -53 889.02 hlineto
          -929.02 -1358.99 rlineto
          203 callsubr
          17 vlineto
          1019 -107 callgsubr
          hlineto
          endchar
        </CharString>
        <CharString name="Z.smcp">
          -23 0 -107 callgsubr
          1057 -61 callsubr
          79.99 891.98 vstem
          156 -58 callsubr
          787.99 1068.99 rlineto
          42 -100 callgsubr
          vlineto
          -806.01 -87 callsubr
          753.01 hlineto
          -786 -1065 rlineto
          -46 18 vlineto
          873.99 -107 callgsubr
          hlineto
          endchar
        </CharString>
        <CharString name="a">
          -47 callsubr
          -50 callsubr
          675.98999 54 hintmask 10111010
          904.99 204 callgsubr
          -72 callsubr
          vhcurveto
          hintmask 10110110
          -99 callgsubr
          hintmask 10111010
          -96 callsubr
          hintmask 01111010
          -65 callsubr
          hintmask 10111010
          -103 callsubr
        </CharString>
        <CharString name="aacute">
          -47 callsubr
          167 266.01 -50 callsubr
          675.98999 54 hintmask 10111101
          785.98 1535 9 callgsubr
          314 -1051 -105 callsubr
        </CharString>
        <CharString name="acircumflex">
          -47 callsubr
          357.01001 -76 callsubr
          -50 callsubr
          675.98999 54 hintmask 10111101
          576 1459 rmoveto
          186.98 49 callsubr
          514.01 -1045 -105 callsubr
        </CharString>
        <CharString name="acute">
          -565 1269.98 -26 callgsubr
          163 callsubr
          254.99 vstem
          314.98 1536 rmoveto
          35 callgsubr
          -266.02 134 callsubr
          31 callsubr
          endchar
        </CharString>
        <CharString name="acutecomb">
          -1076 1269.98 -26 callgsubr
          -573.99 254.99 vstem
          -385 1536 rmoveto
          52 callgsubr
          195 31 callsubr
          endchar
        </CharString>
        <CharString name="adieresis">
          -47 callsubr
          263.01001 111 -50 callsubr
          126 18 callsubr
          -6 54 hintmask 1011110101000000
          355.98 1364.99 rmoveto
          -97 callsubr
          25 24 -103 callgsubr
          31 -25 25 -94 callgsubr
          -16 callsubr
          hvcurveto
          hintmask 1011110110000000
          15 callgsubr
          -12 callgsubr
          -31 -21 callgsubr
          31 hvcurveto
          hintmask 1011101101000000
          104 -1147 -72 callsubr
          -233 -166.99 -147 -169 vhcurveto
          -107 callgsubr
          -1.99 rlineto
          150 150.02 -64 callsubr
          196 211 12 callsubr
          -105.99 -180 vhcurveto
          -158 -258.99 vlineto
          hintmask 1011110101000000
          -96 callsubr
          hintmask 0111110101000000
          -65 callsubr
          hintmask 1011101101000000
          -18 43.99 -9.99 87 78 vvcurveto
          hintmask 1011110101000000
          -480.01 -185 rmoveto
          -163.99 -115.02 106 -54 callgsubr
          164 170 115 279 hvcurveto
          256 -257 hlineto
          -158.99 -71.99 -145 -100 -209.02 hhcurveto
          endchar
        </CharString>
        <CharString name="ae">
          659 -20 104 callsubr
          544.98999 55 416 54 hstemhm
          93 -102 callsubr
          -26.99 53 638.99 -76 callsubr
          733.01 54 hintmask 11110110
          869.99 576.98 rmoveto
          787 83 hlineto
          274 -152 168 -252 -176 -146 -111 -176 -69.98 vhcurveto
          191.02 -31 -127 19 callsubr
          -182 hhcurveto
          hintmask 11101110
          -245 -154.99 -136.99 -187 hvcurveto
          53 -7 rlineto
          158 126 12 callsubr
          221 198 94 -120 -208 vhcurveto
          -90 -290 vlineto
          hintmask 11110110
          -282.01 95 callsubr
          -141 -204.99 -184.02 127 164 callgsubr
          228 232.98 139.02 -54 callgsubr
          107 -43 callgsubr
          hvcurveto
          -1 12 hlineto
          -154 69 137 144 callgsubr
          194 hhcurveto
          192 99 70 72 70.99 hvcurveto
          -29.98 41.99 rlineto
          14 callgsubr
          -77 123 callsubr
          -52 143 callgsubr
          hhcurveto
          -279 -119 171 callsubr
          383 483.99 rmoveto
          231 22 callsubr
          -168 -216 hvcurveto
          3 callsubr
          -730.01 vlineto
          125 callsubr
          23.02 139.98 180 217 hhcurveto
          -805.99 -1016 rmoveto
          -193 -106 94 -55 callsubr
          158 118 137 258.99 hvcurveto
          288.01 -349 hlineto
          12 callgsubr
          -24 -152 -122 208 callsubr
          hhcurveto
          endchar
        </CharString>
        <CharString name="agrave">
          -47 callsubr
          167 266.01 -50 callsubr
          675.98999 54 hintmask 10111101
          630.99 1268.98 -5 callgsubr
          333 -1051 -105 callsubr
        </CharString>
        <CharString name="alpha">
          73 -31 callgsubr
          122 -89 callgsubr
          718.01 -107 callgsubr
          vstem
          1137.99 198 callgsubr
          rmoveto
          -5 -22 -18 -5 -25 hhcurveto
          -72 -51 51 172.02 hvcurveto
          827 -48 vlineto
          -5.98 -228 rlineto
          -17 vlineto
          157 -67.02 -118 72 callsubr
          -181 hhcurveto
          -256.98 -151 9 callsubr
          117 callgsubr
          181.99 122.02 100.98 137 64.98 vhcurveto
          -170.99 7 58 -68 callgsubr
          21 callsubr
          hhcurveto
          -60 callgsubr
          25 1.99 12 24 hvcurveto
          -622 39.99 192 callgsubr
          -10 callgsubr
          112.99 219 238.02 221.99 106 -198 -155 181 callgsubr
          vhcurveto
          -351.99 vlineto
          -174.02 -45.02 -115 203 callgsubr
          -209 hhcurveto
          endchar
        </CharString>
        <CharString name="alpha.alt">
          95 -85 callgsubr
          -33 43 1004.98 54 hstemhm
          122 -89 callgsubr
          707.98999 60 hintmask 00000000
          hintmask 01111000
          1041 hmoveto
          -95 540 88 542 rlineto
          -60 hlineto
          -58 -404 rlineto
          228 -47 -130 196 -209 hhcurveto
          -256.98 -151 9 callsubr
          hintmask 10111000
          117 callgsubr
          204 callgsubr
          137.02 207.97 212 35 vhcurveto
          hintmask 01111000
          63 -398.99 rlineto
          -95 468.99 rmoveto
          hintmask 10111000
          -252 -34 -136 -184 35 callgsubr
          hhcurveto
          -236.02 20 callgsubr
          -10 callgsubr
          112.99 219 238.02 232 98 -276.99 -182 27 vhcurveto
          endchar
        </CharString>
        <CharString name="ampersand">
          171 209 callgsubr
          1379.99 54 hstemhm
          115 -107 callgsubr
          87.98999 55 470 -89 callgsubr
          246.01 55 hintmask 00000000
          hintmask 01111110
          1195.99 hmoveto
          -190 215.98 rlineto
          82 183 callgsubr
          51 134 173 vvcurveto
          -55 hlineto
          -148 -44 -127 -71 -99 vhcurveto
          -474.01 539.01 151 121 rlineto
          162 callgsubr
          -26 callsubr
          116.99 111 123 vvcurveto
          145 -98 22 callsubr
          207 callsubr
          -188 -117 -128 -182 -45 callsubr
          59 5 callgsubr
          106 -131.02 vhcurveto
          -51 -40.98 rlineto
          -138.02 -116.02 143 callsubr
          -128 -166 vvcurveto
          hintmask 10111110
          -228 164.99 -143.99 269 174 139 83 -64 callsubr
          111 vhcurveto
          hintmask 01111110
          156 -176.99 rlineto
          -816.99 1169 rmoveto
          138 87 116 163 144 76 -100 -110 -98 -76 -88 -85 -68 callgsubr
          vhcurveto
          -159 -126.02 rlineto
          -103 122 -47 112 101 vvcurveto
          hintmask 10111110
          237 -1135 rmoveto
          -258.99 -121.02 152.99 165 88 34.02 111 198.99 5 callsubr
          hvcurveto
          52 42 11.02 -13 11 -9 callsubr
          12 -13 rlinecurve
          448.99 -508 rlineto
          -116 -99.99 -141 -68 callgsubr
          -147 hhcurveto
          endchar
        </CharString>
        <CharString name="ampersand.smcp">
          171 209 callgsubr
          1083.99 54 hstemhm
          137.99 54 57 -102 callsubr
          405.99998 56 268.01001 -102 callsubr
          hintmask 00000000
          hintmask 01111110
          1152 hmoveto
          -189 186 rlineto
          78 19 callsubr
          47.99 120 130 vvcurveto
          -83 callgsubr
          hlineto
          -122 -41 -105 -67.01 -83 vhcurveto
          -420.99 414 109 81 rlineto
          64 47 88 92 99 vvcurveto
          124 -91.02 102.01 94 callgsubr
          -160.99 -99 -99 -144.02 79 callsubr
          69 -83 111 -111 vhcurveto
          hintmask 10110110
          105 callgsubr
          -71 rlineto
          143 callsubr
          -87 -77 -80 -132 vvcurveto
          -179 140 -113 230.99 169 147 62.99 106 206 callgsubr
          vhcurveto
          hintmask 01111110
          151 -148.99 rlineto
          -615 676.99 rmoveto
          -104 103 -56.02 81.02 79 vvcurveto
          101 72.01 86 133 132 69 -82 -8 callsubr
          -76 -51 -69 -70 -51 vhcurveto
          -118.99 -88 rlineto
          hintmask 10110110
          38.99 -636.99 rmoveto
          -215 79 callsubr
          115 123 73 17.98 126 callsubr
          158 117 hvcurveto
          77 callgsubr
          70.99 5 -4 5 -5 5 -5 rlinecurve
          413 -407 rlineto
          105 callgsubr
          -97 -138 -83 callgsubr
          -148 hhcurveto
          endchar
        </CharString>
        <CharString name="aring">
          -47 callsubr
          109 54 236.01001 53.99 -50 callsubr
          232.98999 197 callgsubr
          100.98999 54 hintmask 1011111011100000
          578.99 1210.98 172 callsubr
          -96.02 -75 -76 -98 -98 75 12 callgsubr
          96.02 48 callsubr
          326 -1283.01 -72 callsubr
          vhcurveto
          hintmask 1011110111100000
          -99 callgsubr
          hintmask 1011111011100000
          -96 callsubr
          hintmask 0111111011100000
          -65 callsubr
          hintmask 1011111011100000
          -103 callsubr
        </CharString>
        <CharString name="asciicircum">
          -227 1381.99 73.99 -40.96002 71 callgsubr
          90.99 649.99 hintmask 01100000
          740.99 728.99 rmoveto
          -298.99 727 rlineto
          -4.01 hlineto
          -48 hlineto
          -298.99 -727 rlineto
          59 hlineto
          hintmask 10100000
          -25 callsubr
          653 264.01 -653 rlineto
          endchar
        </CharString>
        <CharString name="asciitilde">
          336 442.98 53 224.01001 -61 callsubr
          -14 callgsubr
          55 975 -89 callgsubr
          vstem
          1245.98 751.98 rmoveto
          157 callsubr
          1 rlineto
          -157 -74 -100 -139 -87 -61 35 93 -101 vhcurveto
          93 -105 -74 57 -121 hhcurveto
          -185 -83.01 -143 -169 hvcurveto
          55 hlineto
          170 80 88 133 19 callsubr
          56 -38 127 callsubr
          99 vhcurveto
          -97.02 72 callsubr
          70 -53 120.01 hhcurveto
          180.99 88 146 163 hvcurveto
          endchar
        </CharString>
        <CharString name="asterisk">
          -220 1415.01999 -85 callsubr
          410.48 53 vstem
          392.99 1017 rmoveto
          -234 -324.02 45 3 callsubr
          228 325 242.02 -322 47 33.02 -249.02 316.99 360.02 137 -20.01 53 -352.01 -143 7 395 rlineto
          157 callsubr
          hlineto
          -1 -393.99 -362 133 -18 -54 rlineto
          endchar
        </CharString>
        <CharString name="at">
          826 -452.99 -102 callsubr
          378 -102 callsubr
          897.98999 55 366.01001 1 callgsubr
          128.98 55 394 49.07 534.94 54 494 -76 callsubr
          vstem
          1000.98 1410.99 rmoveto
          -504 -343 -362 -571 -25 hvcurveto
          -573.99 -24 294.01 -356.99 507 hhcurveto
          117 156 31.99 57.02 84.99 hvcurveto
          -24 46 rlineto
          -48 -82 -130.99 -32 -117 hhcurveto
          -487 -264 381.01 494.98 25 hvcurveto
          539.02 28 345 337 440 hhcurveto
          529 211 -321 -510 -27 hvcurveto
          -280 -12 -104 -208.02 -194 hhcurveto
          -64 -140 26.01 232 202 callsubr
          hvcurveto
          -43 callgsubr
          585.01 rlineto
          57 -65 -59.99 53 -45 callsubr
          hhcurveto
          -227 -179 -215 -337 -31 hvcurveto
          -274 -24 93 -182 182 hhcurveto
          148 111.99 78 151.99 126 callsubr
          hvcurveto
          -142.99 15 87 -87 133 hhcurveto
          250 111 287 256 9.01 hvcurveto
          543.99 23 -238 344 -551.01 hhcurveto
          -174 -1377 rmoveto
          -156 -63 179 223 24 hvcurveto
          343.99 37 168 153 175 hhcurveto
          -22 callgsubr
          63 3 callsubr
          -50.02 43 hvcurveto
          -43 -507 rlineto
          -258.99 -83.99 -131 -51 -123 hhcurveto
          endchar
        </CharString>
        <CharString name="atilde">
          -47 callsubr
          198 55 70.01001 53.99 -50 callsubr
          91 -102 callsubr
          529.99998 54 hintmask 1011111011000000
          442 1425 rmoveto
          106 callsubr
          -33 callgsubr
          -29 callsubr
          75 111 hvcurveto
          -71 callsubr
          -45 callgsubr
          vhcurveto
          463 -1207.01 -72 callsubr
          vhcurveto
          hintmask 1011110111000000
          -99 callgsubr
          hintmask 1011111011000000
          -96 callsubr
          hintmask 0111111011000000
          -65 callsubr
          hintmask 1011111011000000
          -103 callsubr
        </CharString>
        <CharString name="b">
          201 callgsubr
          1004.98 54 67 callsubr
          719 56 43 callsubr
          54 vlineto
          hintmask 10111000
          182 callsubr
          vlineto
          -110 68 124 -80.99 177 hhcurveto
          256 150 221 -30 callgsubr
          -151 209 -257 vhcurveto
          351.99 90 callgsubr
          20 callgsubr
          -209 -236 -200.99 -119.01 103 100 callgsubr
          112.99 65 callgsubr
        </CharString>
        <CharString name="b.ss06">
          43 -85 callgsubr
          -33 43 1004.98 54 67 callsubr
          739.01001 -89 callgsubr
          43 callsubr
          45.02 vlineto
          hintmask 10111000
          6.99 172.99 rlineto
          -111 142 callgsubr
          -23 callsubr
          -82.98 179.02 36 callgsubr
          372 90 callgsubr
          -133 -210 -236 -200.99 -119.01 104 100 callgsubr
          133 65 callgsubr
        </CharString>
        <CharString name="backslash">
          -302 1415.01999 -85 callsubr
          -76 callsubr
          665.98 vstem
          57 15 callsubr
          607.99 -1580.99 rlineto
          58 hlineto
          -607.99 1580.99 rlineto
          endchar
        </CharString>
        <CharString name="bar">
          -670 1415.01999 40.96 168 callsubr
          -270 rmoveto
          1725.99 -54 -1725.99 vlineto
          endchar
        </CharString>
        <CharString name="braceleft">
          -416 542.98 66 hstem
          72.99 93 157 54 vstem
          377 19.99 rmoveto
          245 vlineto
          151 -61 125.01 -150 35 vhcurveto
          150 34.97 61 123 151 vvcurveto
          247 vlineto
          199 82.99 158 197.02 63 vhcurveto
          -15.01 45 rlineto
          -244 -77 -75 207 callsubr
          -210 vvcurveto
          -247 vlineto
          -168 -73 5 callgsubr
          -177 vhcurveto
          -23 vlineto
          -43 vlineto
          177 73 -109 -169 hvcurveto
          -245 vlineto
          -209.98 75 -174 244 -77 vhcurveto
          202 callsubr
          46 rlineto
          -196.02 66 127 callsubr
          159 callgsubr
          200.99 vvcurveto
          endchar
        </CharString>
        <CharString name="braceright">
          -416 542.98 66 hstem
          283.99 -107 callgsubr
          156.99998 93 vstem
          337.98 884.98 rmoveto
          247 vlineto
          210 -74 -10 callsubr
          -245 77 vhcurveto
          -9 callsubr
          -45 rlineto
          197 -63 82 -158 -199 vvcurveto
          -247 vlineto
          -151 140 callgsubr
          -123 149 -34.97 vhcurveto
          -149 -35 -61.99 -45 callsubr
          -151 vvcurveto
          -245 vlineto
          -200.99 -89 95 callsubr
          -194.99 -66 vhcurveto
          18.98 -46 rlineto
          245 77 74 174 209.98 vvcurveto
          245 vlineto
          169 107 callsubr
          109 175.99 vhcurveto
          23 vlineto
          43 vlineto
          208 callgsubr
          -74.02 72 callsubr
          168 hvcurveto
          endchar
        </CharString>
        <CharString name="bracketleft">
          -637 -311.99 -107 callgsubr
          1867.99 54 177 callgsubr
          463.99 1609.99 rmoveto
          54 -283.01 -1975.99 283.01 -107 callgsubr
          -229 1868 vlineto
          endchar
        </CharString>
        <CharString name="bracketright">
          -637 -311.99 -107 callgsubr
          1867.99 54 hstem
          219.99 -102 callsubr
          vstem
          -8 1664 rmoveto
          -54 228 -1868 -228 -87 callsubr
          282.98 1975.99 vlineto
          endchar
        </CharString>
        <CharString name="brokenbar">
          -678 1415.01999 40.96 176 callsubr
          226 698 rmoveto
          757.99 -54 -757.99 vlineto
          -968 vmoveto
          54 752 -54 hlineto
          endchar
        </CharString>
        <CharString name="bullet">
          -441 544.99 347.99 hstem
          154.99 333.98 vstem
          154.99 733 rmoveto
          -30 vlineto
          -91.02 64 -68 callgsubr
          103 103 64 -63 callgsubr
          91.02 vhcurveto
          30 vlineto
          91 -64 69 -104 79 callsubr
          -64 122 callsubr
          -92 vhcurveto
          endchar
        </CharString>
        <CharString name="c">
          -37 67 callgsubr
          96.99 54 734.98999 54 vstem
          885.99 327.99 rmoveto
          -49 callsubr
          -13 -164.99 -87 -169 hhcurveto
          -43 callsubr
          -316.99 161 -223 281 211 179 128 220 11 vhcurveto
          endchar
        </CharString>
        <CharString name="c.ss06">
          -14 -31 callgsubr
          76 callsubr
          54 755 54 vstem
          908.98 327.99 rmoveto
          -49 callsubr
          -12.98 -165 -88 -169 hhcurveto
          -267 -141 216 127 callgsubr
          hvcurveto
          42 vlineto
          269 141 216.99 264.99 178.02 161 5 callgsubr
          -215 9.99 vhcurveto
          54 hlineto
          247.99 -10 -184.02 129 -209 hhcurveto
          -279 -181 209 callsubr
          -316.99 181 -223.99 281 211 179 128.98 220 11 vhcurveto
          endchar
        </CharString>
        <CharString name="ccedilla">
          -37 -445 49 265.01 141 callsubr
          66 54 -53 53 2 callsubr
          hstemhm
          96.99 54 535 -102 callsubr
          144.99998 54 hintmask 11101111
          538.99 34 rmoveto
          -43 callsubr
          -310 -55 callsubr
          -219.97 269 201 callsubr
          vhcurveto
          -23 -110.99 rlineto
          124 150 callgsubr
          -107.01 vhcurveto
          7 -49 rlineto
          176 109 76 21 callsubr
          121 -88 39 127 callsubr
          9.01 hvcurveto
          hintmask 11011111
          10 -63 callgsubr
          -34 callsubr
          13 161.02 163 callsubr
          10 208 rlinecurve
          -54 hlineto
          hintmask 11101111
          -49 callsubr
          -13 -164.99 -87 -169 hhcurveto
          endchar
        </CharString>
        <CharString name="cedilla">
          -586 -434.99 -43 callgsubr
          265 121 hstem
          317.99 -102 callsubr
          vstem
          206.99 hmoveto
          -53 hlineto
          -25 -121 rlineto
          124 150 callgsubr
          34 callsubr
          vhcurveto
          6.99 104 callgsubr
          rlineto
          176 109 76 -64 callsubr
          121 -87.99 181 callgsubr
          -89 8.99 hvcurveto
          endchar
        </CharString>
        <CharString name="cent">
          34 -19 53 1013.98 53 hstem
          133.98 54 361 55 319.01001 54 vstem
          576 34 rmoveto
          -267.02 -121 215 127 callgsubr
          hvcurveto
          42 vlineto
          269 121 216.99 265.01 -10 callsubr
          161.02 5 callgsubr
          -215 10 vhcurveto
          54 hlineto
          201 callsubr
          125 callsubr
          -167 128 -195.99 12 rrcurveto
          217 -55 -217 vlineto
          -263.99 -12.98 -151.02 -219.02 -307 vvcurveto
          -42 vlineto
          -307 151.02 -217.99 263.99 200 callsubr
          vhcurveto
          -226 55 226 vlineto
          198.98 11 163 163 callsubr
          11.02 210 rrcurveto
          -54 hlineto
          -49 callsubr
          -13 -165 -87 -168.98 hhcurveto
          endchar
        </CharString>
        <CharString name="circumflex">
          -280 1459.99 1 callgsubr
          151.98 504.01 vstem
          655.99 1274 rmoveto
          184 callgsubr
          200 callsubr
          61 callgsubr
          endchar
        </CharString>
        <CharString name="colon">
          -712 -6 -69 callgsubr
          851 111 hstemhm
          12 callsubr
          111 -106 111 hintmask 00000000
          hintmask 11010000
          179 1066.99 rmoveto
          -27 callgsubr
          -94 callgsubr
          24 -24 -97 callsubr
          30.99 25 194 callgsubr
          -25 25 -102 callgsubr
          hvcurveto
          hintmask 11100000
          -5 -962 rmoveto
          -31 -28 callsubr
          31 139 callsubr
          96 callgsubr
          31 31 81 callsubr
          189 callsubr
        </CharString>
        <CharString name="comma">
          -693 -254.99 413.98 168 callsubr
          124 callsubr
          -24 callgsubr
        </CharString>
        <CharString name="copyright">
          590 -20.99 -102 callsubr
          267.99 -102 callsubr
          744.99998 53 266 55 hstem
          207 callgsubr
          56 327.01001 -102 callsubr
          510.99998 104 callsubr
          363.02 -89 callgsubr
          vstem
          832.98 137 callgsubr
          -390.99 -319.02 187 callgsubr
          319.02 -326.98 390.99 392.01 317.99 187 callsubr
          -317.99 323.99 -392.01 hvcurveto
          -1442 vmoveto
          -359 -294.99 307 388 388.01 294.99 303.98 359 358.01 130 callgsubr
          -358.01 hvcurveto
          291 582 rmoveto
          -52 hlineto
          179 callgsubr
          -88 -80 -157.99 -169 105 callgsubr
          145 187 vhcurveto
          80 vlineto
          185.02 77 callgsubr
          159 callgsubr
          169 157.99 89 -86 -174 vhcurveto
          52 hlineto
          209 -118 104 -180.99 -191.02 -128.99 -158 -228.99 vhcurveto
          -79.02 vlineto
          79 callgsubr
          128.99 -157 191.02 180.99 117 104 210 vhcurveto
          endchar
        </CharString>
        <CharString name="crossbar">
          -265 720.99 -61 callsubr
          72 callsubr
          586.99 vstem
          694.99 721 -27 callsubr
          -587 -87 callsubr
          vlineto
          endchar
        </CharString>
        <CharString name="currency">
          426 -20 53 1147.99 52.98 hstem
          148.99 -102 callsubr
          1081.01 -107 callgsubr
          vstem
          1338.98 607.99 rmoveto
          165 -57 146 -94 110 vhcurveto
          192 196 -41 40 -191 -194 rlineto
          102.01 -105 143 callgsubr
          -26 callsubr
          -156.02 hhcurveto
          -155 143 callgsubr
          -59.99 -102.02 -106 hvcurveto
          -188 192 -40 -38.99 188.99 -193 rlineto
          144 callgsubr
          -110 -58 -148 -166 vvcurveto
          103 callsubr
          54 -143.02 -22 callgsubr
          -109 vhcurveto
          -179 -183 40 -38.99 177 179.99 rlineto
          5 callgsubr
          106.99 146 -66 161 hhcurveto
          161 147 66 110 106.99 hvcurveto
          179 -182.99 41 39.97 -181.99 186 rlineto
          87.99 183 callgsubr
          53 71 callsubr
          158 vvcurveto
          -594 -575 rmoveto
          -296 -245 257 317.99 317.01 245 256 296 295.01 245 -256 -317.01 -317.99 -245 -257 -295.01 hvcurveto
          endchar
        </CharString>
        <CharString name="d">
          201 callgsubr
          1004.98 54 hstemhm
          122 -89 callgsubr
          718.98999 54 hintmask 10111000
          896.98 1536 rmoveto
          -653 vlineto
          -54 callgsubr
          -68 164 callgsubr
          88 179 callgsubr
          hhcurveto
          -256.98 -151 -41 callgsubr
          150 -221 256 179 123 82 112 -63 callgsubr
          vhcurveto
          hintmask 01111000
          -174 54 1536 vlineto
          hintmask 10111000
          -424 -1502 24 callsubr
          229.99 77 callgsubr
          -146 -127 41.99 vhcurveto
          -506 vlineto
          -134 -51 64 callsubr
        </CharString>
        <CharString name="d.ss06">
          43 -85 callgsubr
          -33 43 1004.98 54 hstemhm
          76 callsubr
          56 739.01001 -107 callgsubr
          hintmask 10111000
          895 1536 rmoveto
          -653 vlineto
          -54 callgsubr
          -68.02 164 callgsubr
          88 -179 hhcurveto
          -257 -171 -41 callgsubr
          170 -221.98 256 179 124 82.98 112 123 callgsubr
          vhcurveto
          hintmask 01111000
          1.99 -174 rlineto
          52 1536 hlineto
          hintmask 10111000
          -424 -1503.01 rmoveto
          121 callsubr
          -133 210 -30 callsubr
          133 209 238 229.99 77 callgsubr
          -146 -127 42 vhcurveto
          -506 vlineto
          -135 -51.02 64 callsubr
        </CharString>
        <CharString name="degree">
          -293 998.99 -89 callgsubr
          365.99998 55 hstem
          155.99 -102 callsubr
          357.01 -89 callgsubr
          vstem
          391.99 137 callgsubr
          -130 -105.99 -109 -131 -133 105.99 -104 130 127 105 104 133 131 -105 109 -127 hvcurveto
          -421 vmoveto
          -103 -78.01 76 105 107.01 -8 callgsubr
          96 callsubr
          103 102.01 74 14 callgsubr
          -107.01 -105 -74 -76 159 callsubr
          hvcurveto
          endchar
        </CharString>
        <CharString name="dieresis">
          -170 1365.99 111 hstem
          173.99 18 callsubr
          vstem
          228.99 1477 rmoveto
          155 callgsubr
          -25 -94 callgsubr
          -102 callgsubr
          -60 callgsubr
          -24 31 31 25 24 -53 callgsubr
          -25 25 -31 154 callsubr
          -31 167 callgsubr
          31 197 callsubr
          -53 callgsubr
          -25 25 189 callsubr
        </CharString>
        <CharString name="divide">
          83 245.99 111 329 104 callsubr
          286.01999 -69 callgsubr
          hstem
          528.99 111 vstem
          583.99 1134.98 rmoveto
          155 callgsubr
          -100 callgsubr
          -94 callgsubr
          -31 -60 callgsubr
          -23.98 31 31 -33 callgsubr
          96 callgsubr
          31 -97 callsubr
          81 callsubr
          -31 hvcurveto
          487 -448.99 rmoveto
          52 -997.99 -52 vlineto
          511 -329.01 rmoveto
          155 callgsubr
          68 callsubr
          -31 -60 callgsubr
          -24 31 174 callgsubr
          30.99 -23 callgsubr
          25 -31 hvcurveto
          endchar
        </CharString>
        <CharString name="dollar">
          45 -20.99 52.98 -51.98999 104 callsubr
          1392 53 hstemhm
          121 -107 callgsubr
          -7 -107 callgsubr
          331.99998 55 -44 55 319 54 -45.98999 -107 callgsubr
          hintmask 0000000000000000
          hintmask 0110101010000000
          1000.98 205 callgsubr
          rmoveto
          240 -163 107 callgsubr
          -244.99 72 callgsubr
          vhcurveto
          -311.01 103 -60 91.01 163.99 vvcurveto
          158 112 154 245 vhcurveto
          hintmask 1010110100000000
          234 126 -162 -215 hvcurveto
          54 hlineto
          266 -144 152 -240 11 vhcurveto
          187 -55 -186 vlineto
          121 callsubr
          201 callsubr
          -150 -142.99 -214 vvcurveto
          -240 155 -83.01 253 -84.99 vhcurveto
          hintmask 1011001010000000
          284 159 callsubr
          87 -82 -174 vvcurveto
          -161 -134 -151 -227 -190 -221 88 289 vhcurveto
          -87 callsubr
          hlineto
          -313 222.99 -109.99 221 -6.99 vhcurveto
          hintmask 0110101010000000
          -187 55 187.99 vlineto
          229 12 151.99 137.99 216 vvcurveto
          endchar
        </CharString>
        <CharString name="dollar.smcp">
          -35 -15.99 110 callgsubr
          54 -54 132 callgsubr
          337.02 -107 callgsubr
          335.98999 54 -42 55 hintmask 1001011010000000
          968.99 281.98 rmoveto
          145 callsubr
          74 callsubr
          vhcurveto
          hintmask 1001011100000000
          166 callgsubr
          hvcurveto
          54 hlineto
          hintmask 1010011100000000
          -34 callsubr
          103 callsubr
          140 -230 158 callsubr
          vhcurveto
          215 -87 callsubr
          vlineto
          hintmask 1001011010000000
          -214 vlineto
          -224.02 -8 94 callgsubr
          -109 -173.02 vvcurveto
          -186 157 -75 256 -64 vhcurveto
          97 callsubr
          hintmask 1001101010000000
          210 callgsubr
          hintmask 0101101010000000
          -244 223 -91.99 207.02 -7.99 vhcurveto
          -222 -107 callgsubr
          vlineto
          hintmask 1001011010000000
          221 vlineto
          225 7 178 106.99 183.99 vvcurveto
          endchar
        </CharString>
        <CharString name="dotlessi">
          -670 0 43 168 callsubr
          hmoveto
          111 callsubr
        </CharString>
        <CharString name="e">
          26 callgsubr
          166 callsubr
          140.98 576.98 rmoveto
          -106 callsubr
        </CharString>
        <CharString name="e.ss07">
          -44 -85 callgsubr
          543.98 54 417 54 166 callsubr
          140.98 117 callsubr
          83 hlineto
          275 -171 167 -239.99 -250.02 -203.98 -222 -315.98 vhcurveto
          -64 vlineto
          -302.02 210.99 -218.97 263 170 106 62.97 81 75 vhcurveto
          -29 42 rlineto
          -95 -100 -98 -36.99 -124 hhcurveto
          -238 -182 208 259.01 hvcurveto
          64 vlineto
          400.02 483.99 rmoveto
          216.99 140 -167 -217 hvcurveto
          -33 -754 vlineto
          125 callsubr
          -98 callgsubr
          153 181 219 hhcurveto
          endchar
        </CharString>
        <CharString name="eacute">
          26 callgsubr
          166.01001 265.99 166 callsubr
          775.99 1533.99 rmoveto
          -66 hlineto
          35 callgsubr
          -266 rlineto
          60 hlineto
          -440.02 -691.02 rmoveto
          -106 callsubr
        </CharString>
        <CharString name="ecircumflex">
          26 callgsubr
          356.01001 56.99 166 callsubr
          181 callsubr
          1457.99 rmoveto
          160 callgsubr
          68 10 hlineto
          -18 callgsubr
          -240 -685.02 rmoveto
          -106 callsubr
        </CharString>
        <CharString name="edieresis">
          26 callgsubr
          262 111 hstemhm
          87 -107 callgsubr
          149.98999 111 334 111 51 54 hintmask 11111101
          205 callgsubr
          1363.99 rmoveto
          31.01 -65 callgsubr
          -33 callgsubr
          -94 callgsubr
          138 callgsubr
          hintmask 11111111
          15 callgsubr
          30.99 -51 callgsubr
          -33 callgsubr
          -102 callgsubr
          138 callgsubr
          -650.02 -787 rmoveto
          hintmask 11111101
          -106 callsubr
        </CharString>
        <CharString name="egrave">
          26 callgsubr
          166.01001 265.99 166 callsubr
          620.99 1268 rmoveto
          -188 81 callgsubr
          -421.01 -691.02 rmoveto
          -106 callsubr
        </CharString>
        <CharString name="eight">
          172 callgsubr
          76 callsubr
          54 -13 54 737 54 -13 55 hintmask 11110010
          715.98 84 callgsubr
          208 callsubr
          137 -235 -238 -182 -137 -252.99 -166 108.02 -126 -14 callgsubr
          83 callsubr
          202.02 -134 262.98 -40 callsubr
          -163.98 -122 -205 -211 112 callsubr
          -178 119.99 220 210 178 134 231.02 227 182.99 133 callgsubr
        </CharString>
        <CharString name="eight.frac">
          -100 callsubr
        </CharString>
        <CharString name="eight.smcp">
          -66 -75 callsubr
          532.00002 -107 callgsubr
          503.01 55 hstemhm
          87.98 54 -16.98999 54 653.01 -107 callgsubr
          -18.01001 55 hintmask 11110010
          651.98 595.99 rmoveto
          hintmask 11101100
          138.02 41 19 callsubr
          100 180 callsubr
          vvcurveto
          203.02 -169 111 -211.99 -214.02 94 callgsubr
          -111 -203.02 -129.99 95 callgsubr
          -100 139 -41 vhcurveto
          hintmask 11110010
          -160 -40 -111 5 callgsubr
          -143.02 vvcurveto
          -212.99 182 5 callgsubr
          237 231.02 185 72 callsubr
          212.99 142 -112 72 callsubr
          -159 41 vhcurveto
          hintmask 11101100
          -472.99 274 rmoveto
          -14 callgsubr
          140 77 callgsubr
          186 181.99 145.02 -106 -150 -152 -144.02 -95 -181 -187.99 -140 95 152 vhcurveto
          hintmask 11110010
          327.99 -833 rmoveto
          -49 callsubr
          -158 94 171 162 158 105 205 200.99 162 -105 -162 -171 103 callsubr
          -94 -201 hvcurveto
          endchar
        </CharString>
        <CharString name="eight.sup">
          53 callgsubr
          341.99 49 323 49 -84 callgsubr
          403.99 -6 callgsubr
          -72 -94.99 vvcurveto
          -145 -23 callsubr
          -73.99 161 157 -9 callgsubr
          73.99 45 callgsubr
          62 117 116 91.01 -68 144 callgsubr
          -98.02 -8 callsubr
          33 callsubr
          -115 -119 -88 -26 callsubr
          98.02 vhcurveto
          hintmask 11110010
          207 -550.01 rmoveto
          -133 -98.02 61 109 105 98.02 -63 callgsubr
          -54 callgsubr
          129 101 -68 callgsubr
          -105 -109 -99 -61 -129 hvcurveto
          endchar
        </CharString>
        <CharString name="eight.tnum">
          172 callgsubr
          19 callsubr
          54 -13 54 736.98999 54 -12.98999 55 hintmask 11110010
          711.99 84 callgsubr
          -190.02 137 -234.99 -238 -182 -137 -252.99 -166 72 callsubr
          -126 160 83 callsubr
          202 -134 263 -40 callsubr
          -164 -122 -205 -210.99 112 callsubr
          207 callsubr
          119.99 220 210 -10 callsubr
          134 231 227 183 133 callgsubr
        </CharString>
        <CharString name="ellipsis">
          179 -6 -69 callgsubr
          135 callsubr
          111 273 111 257.98999 111 vstem
          239.98 104.98 rmoveto
          -70 callgsubr
          384 hmoveto
          -70 callgsubr
          369.01 hmoveto
          -31 -28 callsubr
          31 -36 callgsubr
          96 callgsubr
          31 -59 callgsubr
          hvcurveto
          endchar
        </CharString>
        <CharString name="emdash">
          485 720.99 -61 callsubr
          108.99 1335.99 vstem
          1444.99 721 -27 callsubr
          -1336 -87 callsubr
          vlineto
          endchar
        </CharString>
        <CharString name="endash">
          248 720.99 -61 callsubr
          155.99 1001.98 vstem
          1157.98 721 -27 callsubr
          -1001.99 -87 callsubr
          vlineto
          endchar
        </CharString>
        <CharString name="equal">
          66 435.99 -107 callgsubr
          353.01 -61 callsubr
          146.98 834 vstem
          980.99 843 -27 callsubr
          -834.01 -87 callsubr
          vlineto
          834.01 -407 -27 callsubr
          -834.01 -87 callsubr
          vlineto
          endchar
        </CharString>
        <CharString name="eth">
          107 -20 180 callgsubr
          857 180 callgsubr
          467.03998 -85 callsubr
          172.99 -102 callsubr
          759.01 54 vstem
          802 1308 rmoveto
          188.99 105 -29 47.99 -202 20 callgsubr
          -105 77 callsubr
          -133 107 callsubr
          -164 80 callgsubr
          rlinecurve
          -20.01 -50 140 -52 127.02 -65 104 -89.99 rlinecurve
          -220.02 -123 28.02 -48 234.99 131.02 118.01 -119.01 82 -158 25.99 -223 rlinecurve
          112 -80 -147 61 -150 hhcurveto
          -268 103 callsubr
          -178.02 -309.98 -271.01 187.99 -213.99 268 240 172 225.99 329.01 hvcurveto
          80 vlineto
          304 -79.01 222.99 103 callsubr
          166 vhcurveto
          185 -773 rmoveto
          -289.01 -137 -208 -216.99 -261 -144.02 212.99 214.02 239.99 111 190.02 262 214 124 -114.02 -109 47 vhcurveto
          1 -18 0 -18 -19 vvcurveto
          endchar
        </CharString>
        <CharString name="exclam">
          -679 -6 -69 callgsubr
          1310.04 71 callgsubr
          146.98 111 -90.98999 54 hintmask 11010000
          221 401 rmoveto
          1054.99 -54 -1054.99 vlineto
          hintmask 11100000
          35 -296.02 18 callgsubr
        </CharString>
        <CharString name="exclamdown">
          -670 991.98 111 hstemhm
          71 callsubr
          111 -74 -107 callgsubr
          hintmask 00000000
          hintmask 11000000
          197.98 991.99 rmoveto
          31 24 -33 callgsubr
          -103 callgsubr
          31 -24 24 59 callsubr
          -25 -24 59 callsubr
          25 -23 callgsubr
          156 callgsubr
          hintmask 10100000
          205 callsubr
          -296 rmoveto
          -1054.98 -107 callgsubr
          1054.98 vlineto
          endchar
        </CharString>
        <CharString name="f">
          -431 -71 callgsubr
          vstem
          537.99 1502.99 rmoveto
          54 27 -5 -10 38 hvcurveto
          53 callsubr
          13 -42 -45 4 -41 hhcurveto
          -48 callgsubr
          285.98 55 140 callsubr
          153.99 vlineto
          28 callsubr
          vhcurveto
          endchar
        </CharString>
        <CharString name="f_f">
          214 -71 callgsubr
          591 54 vstem
          34 callgsubr
          1235.99 rmoveto
          -153.99 145 callgsubr
          285.98 55 140 callsubr
          153.99 vlineto
          28 callsubr
          54 27 -5 -10 38 vhcurveto
          53 callsubr
          13 -42 -45 4 -41 hhcurveto
          -176 34 callsubr
          -114.02 -49 callsubr
          hvcurveto
          929 267 rmoveto
          54 124 callsubr
          -5 -10 38.02 hvcurveto
          53 callsubr
          13 -41.99 -45.02 4 -41 hhcurveto
          208 callgsubr
          -107 -68 callsubr
          286 55 -286 173 callsubr
          88 98 71 callsubr
          vhcurveto
          endchar
        </CharString>
        <CharString name="f_f_i">
          567 -71 callgsubr
          522 54 522 54 vstem
          884 -42 callgsubr
          -136 vlineto
          -385.99 -74 callgsubr
          hlineto
          195 callgsubr
        </CharString>
        <CharString name="f_f_l">
          567 -71 callgsubr
          522 54 522 54 vstem
          1112.99 61 callsubr
          -125.99 vlineto
          -396 -74 callgsubr
          -55 callsubr
          hlineto
          -13 callsubr
        </CharString>
        <CharString name="f_l">
          -9 -71 callgsubr
          522 54 vstem
          536.99 1556.99 rmoveto
          -48 callgsubr
          285.98 55 140 callsubr
          153.99 vlineto
          -13 callsubr
        </CharString>
        <CharString name="fi">
          -9 -71 callgsubr
          522 54 vstem
          308 -42 callgsubr
          145 callgsubr
          285.98 55 140 callsubr
          vlineto
          195 callgsubr
        </CharString>
        <CharString name="five">
          45 -20 54 827.98 54 487 53 hstem
          181.99 55 732 55 vstem
          230.99 762 rmoveto
          41 -16.02 rlineto
          71 76 93 45 -55 callsubr
          hhcurveto
          241 133 -171.99 -228 -280 -116 95 callsubr
          -239 -224 -132 123 226 -21 hvcurveto
          -55 hlineto
          -273 22 182 -130 228 hhcurveto
          141 callgsubr
          116.02 205 279 284 179 callgsubr
          168 -251 203 callgsubr
          -121 157 callsubr
          -41 -48 hvcurveto
          59 583.99 rlineto
          660.99 53 -710 hlineto
          endchar
        </CharString>
        <CharString name="five.frac">
          -89 callsubr
        </CharString>
        <CharString name="five.smcp">
          -66 -75 callsubr
          643.99 55 373.01001 -89 callgsubr
          hstem
          161.99 -102 callsubr
          650.99998 55 vstem
          188.99 605.98 rmoveto
          41 -16 rlineto
          56 72 71.99 35 152 hhcurveto
          220 122 -123.99 -187 -216 -99 -117 162 callsubr
          -162.02 -138 95 174 -18 hvcurveto
          -83 callgsubr
          hlineto
          -218 206 callsubr
          182 -103.97 172 hhcurveto
          277 111 163.98 223 228 -170 136.99 -227 -128 -106 -42 3 callsubr
          -45 hvcurveto
          57 447 rlineto
          609.02 -89 callgsubr
          -653 hlineto
          endchar
        </CharString>
        <CharString name="five.sup">
          53 callgsubr
          416.00002 47.98 237.02 50.99 hstem
          -9 callgsubr
          54 418 53 vstem
          145 407 rmoveto
          41 -13 -3 callgsubr
          -81 -121.02 -136.99 -65 -77 95 callsubr
          -106 -88 60 111 -11 hvcurveto
          -54 hlineto
          -148 13 -23 callsubr
          -70.98 55 callgsubr
          111.98 150 156.02 -113 93.99 -156 -83 -68 callgsubr
          22 callgsubr
          -20.01 -31 hvcurveto
          37 283.02 rlineto
          402 51 -447 hlineto
          endchar
        </CharString>
        <CharString name="five.tnum">
          55 endchar
        </CharString>
        <CharString name="four">
          45 0 43 353.98 54 941 64 hstem
          787.98 54 vstem
          1093.98 450.99 rmoveto
          -251.99 1004.99 -15.01 hlineto
          -49.99 hlineto
          -695.01 -1029 rlineto
          -30 706 -396.98 54 396.98 251.99 vlineto
          -927.99 54 rmoveto
          538.01 802 107 callgsubr
          139 rlineto
          -940.99 vlineto
          endchar
        </CharString>
        <CharString name="four.frac">
          -57 callsubr
        </CharString>
        <CharString name="four.smcp">
          -66 0 364.99 -55.01001 55 740.01001 80 callgsubr
          hstemhm
          705.98 54 hintmask 01110000
          984.99 364.99 rmoveto
          -225 799.99 -16 hlineto
          -48 hlineto
          -624 -821.99 rlineto
          -33 634 vlineto
          hintmask 10110000
          -309.98 54 vlineto
          hintmask 01110000
          309.98 225 vlineto
          -832 55 rmoveto
          480.01 626 72.99 21 callsubr
          rlineto
          -740 vlineto
          endchar
        </CharString>
        <CharString name="four.sup">
          0 20 callsubr
          -49.01001 49 474.01001 140 callgsubr
          hstemhm
          182 callgsubr
          53 hintmask 01110000
          688.99 20 callsubr
          rmoveto
          -147 536 -14.99 hlineto
          -45 hlineto
          -417.02 -553 1 -32 rlineto
          423 hlineto
          hintmask 10110000
          -203.98 53 vlineto
          hintmask 01110000
          203.98 147 vlineto
          -554 49 rmoveto
          310 403 44 71 rlineto
          -474.01 vlineto
          endchar
        </CharString>
        <CharString name="four.tnum">
          149 endchar
        </CharString>
        <CharString name="fraction">
          -171 -54 callgsubr
          1168.99 hstem
          64.98 755.99 vstem
          110 -54 callgsubr
          rmoveto
          710.99 1137.99 -45 31 -711 -1137.99 rlineto
          endchar
        </CharString>
        <CharString name="g">
          47 -435.99 53 362.99 -19 callgsubr
          hstem
          121 -102 callsubr
          719 -102 callsubr
          vstem
          895 1082 rmoveto
          -197.02 vlineto
          130 -69 -120.01 87 -176.99 hhcurveto
          -257 -151 -41 callgsubr
          150 -221 256 -10 callsubr
          123 80.99 63 callgsubr
          -121.02 -155 -234.99 -134 105 callgsubr
          59 105.99 -83.99 vhcurveto
          -38 -35.99 rlineto
          -107.01 -8 callgsubr
          118 -75 158 37 callsubr
          -1048 rmoveto
          121 callsubr
          -114.02 209 -30 callsubr
          114.02 209 65 callsubr
          -136.99 -49 -118 -105 -202 hhcurveto
          endchar
        </CharString>
        <CharString name="g.alt">
          0 -438 54 507.99 54 240.98999 54 555.01001 54 -34.01001 54 hstemhm
          -22 callgsubr
          54 2.98999 54 47.01001 54 558 -107 callgsubr
          21.01 54 hintmask 0000000000000000
          hintmask 1111001111000000
          618.99 -10 callsubr
          rmoveto
          -190 hlineto
          -62 -64.99 19.99 90 74 56 50.02 157 callgsubr
          124 callsubr
          hvcurveto
          -13 42 141 callsubr
          -7 49 hhcurveto
          hintmask 1111001010000000
          221 161 146 175 hvcurveto
          22.02 vlineto
          110.99 -51 94 -85 61 vhcurveto
          202 hlineto
          -2 54 rlineto
          -309.98 hlineto
          hintmask 1110101010000000
          12.99 -42 -47 7 -49 hhcurveto
          -220 -163 -142.99 -197 hvcurveto
          -22.02 vlineto
          143 callsubr
          107 callsubr
          -105 116.99 -56.02 vhcurveto
          hintmask 1111010111000000
          203 callsubr
          -36.99 -46 -55 -81 vvcurveto
          -72.99 31.99 -44 45.02 -24 vhcurveto
          -123 -51 -112 79 callsubr
          -146 vvcurveto
          -158 138 -128 13 callsubr
          318 177 178.02 152.99 vhcurveto
          hintmask 1111001111000000
          78 callsubr
          -159 95 callgsubr
          -211 vhcurveto
          hintmask 1110101010000000
          -418 142 callsubr
          rmoveto
          22.02 vlineto
          150 130 200 callgsubr
          198.99 200 130 203 callgsubr
          -150 vhcurveto
          -22.02 vlineto
          -130.99 -128 -136 -200 -53 -48 9.01 16 -41.99 vhcurveto
          1 vlineto
          -118 141 callsubr
          -70 100 19 callsubr
          vvcurveto
          hintmask 1111010011000000
          293 -1123.98 rmoveto
          -241 -109 104 128 132 128 123 150 21 hvcurveto
          7 hlineto
          190 hlineto
          220 77 callgsubr
          -100.99 -130 -124.99 -157 -152 -284 hvcurveto
          endchar
        </CharString>
        <CharString name="g.ss06">
          46 108 callsubr
          76 callsubr
          55 739.01001 -102 callsubr
          vstem
          902.98 1082 rmoveto
          -7.99 -200 rlineto
          -54 callgsubr
          -68.02 -121 89 -178 hhcurveto
          -257 -171 -41 callgsubr
          170 -221.98 256 178.02 207 callgsubr
          163 callgsubr
          63 callgsubr
          -121 -155 -235 164 callgsubr
          -82 21 42 -94 vhcurveto
          -17 -47 rlineto
          -45 89 126 -24 100 37 callsubr
          -1049 rmoveto
          121 callsubr
          -134 210 -30 callsubr
          134 209 238 235 93 -152.99 -128 39 vhcurveto
          -491.01 vlineto
          -138 -49 143 callsubr
          -105 -202.02 hhcurveto
          endchar
        </CharString>
        <CharString name="g.ss07">
          47 108 callsubr
          121 -102 callsubr
          719 -102 callsubr
          vstem
          903.99 1082 rmoveto
          -7.99 -200 rlineto
          -54 callgsubr
          -68.02 -121 89 -178 hhcurveto
          -257 -151 9 callsubr
          117 callgsubr
          -10 callsubr
          123 163 callgsubr
          63 callgsubr
          -121.02 -155 -234.99 179 callsubr
          -81.98 21 42 -94 vhcurveto
          -16.02 -54 rlineto
          -41 199 callgsubr
          125.01 -20.99 100 37 callsubr
          -1049 rmoveto
          121 callsubr
          -114.02 -10 callgsubr
          114.02 219 65 callsubr
          -138 -49 -118 -105 -202 hhcurveto
          endchar
        </CharString>
        <CharString name="germandbls">
          107 -20.99 52.98 -31.98999 43 1437.99 54 hstemhm
          163.98 54 413 54 59.01001 80 callgsubr
          203.99998 54 hintmask 00000000
          hintmask 01111110
          204 callgsubr
          hmoveto
          1142.99 vlineto
          246 113.01 92 5 callsubr
          122 22 callsubr
          -97 -45 callsubr
          vhcurveto
          -179 123 callsubr
          -44 -204.99 vvcurveto
          hintmask 10111010
          -246 377 -49 79 callgsubr
          vvcurveto
          -147 -133 -127 -188 -105.99 179 callsubr
          43 41.99 -53 vhcurveto
          -100 callgsubr
          104 callgsubr
          rlineto
          -48 -107 callgsubr
          142 -40.98 116 hhcurveto
          164 203 115.98 202 hvcurveto
          272.02 -377 52 208 208 12 callsubr
          -97 callsubr
          188.99 vvcurveto
          hintmask 01111110
          168.02 -152.99 110 -158 -212 -117 -139 -253 vhcurveto
          -1142.99 vlineto
          endchar
        </CharString>
        <CharString name="grave">
          -539 1269.98 -26 callgsubr
          148.99 34 callgsubr
          vstem
          402.98 1269.99 7 callgsubr
          endchar
        </CharString>
        <CharString name="gravecomb">
          -1076 1269.98 -26 callgsubr
          -743.99 34 callgsubr
          vstem
          -490 1269.99 7 callgsubr
          endchar
        </CharString>
        <CharString name="greater">
          -23 264.99 806.99 hstem
          872.98 77 vstem
          -64 callsubr
          1071.98 rmoveto
          -59 vlineto
          758.99 -344.99 -758.99 -344 rlineto
          -59 vlineto
          836 379 rlineto
          7 vlineto
          -37 callgsubr
          vlineto
          endchar
        </CharString>
        <CharString name="guillemotleft">
          -171 144.99 758.98 hstem
          144.99 652 vstem
          509.99 903.99 rmoveto
          -70 hlineto
          -295 -369.99 rlineto
          -6 vlineto
          -13 vlineto
          295 -370 rlineto
          70 hlineto
          178 callsubr
          379.99 rlineto
          581.02 379 rmoveto
          -70 hlineto
          -295.02 -369.99 rlineto
          -6 vlineto
          -13 vlineto
          295.02 -370 rlineto
          70 hlineto
          178 callsubr
          379.99 rlineto
          endchar
        </CharString>
        <CharString name="guillemotright">
          -179 182 callsubr
          769 hstem
          128 653.98 vstem
          491.99 541 rmoveto
          206 callsubr
          vlineto
          178 callsubr
          380.01 rlineto
          -69.98 hlineto
          141 callgsubr
          -389 156 callsubr
          -380 rlineto
          69.98 hlineto
          290.02 769 rmoveto
          -70 hlineto
          141 callgsubr
          -389 156 callsubr
          -380 rlineto
          70 hlineto
          141 callgsubr
          147 callgsubr
        </CharString>
        <CharString name="guilsinglleft">
          -472 73 callgsubr
          759 hstem
          72 callsubr
          364.99 vstem
          472.99 939.99 rmoveto
          -70 hlineto
          -294.99 -370 rlineto
          -6 vlineto
          -13 vlineto
          294.99 -370.01 rlineto
          70 hlineto
          156 callsubr
          380 rlineto
          endchar
        </CharString>
        <CharString name="guilsinglright">
          -472 182 callsubr
          769 hstem
          105.98 364.01 vstem
          175.98 939.99 rmoveto
          -70 hlineto
          294.01 -389 178 callsubr
          -380 rlineto
          70 hlineto
          294.02 147 callgsubr
        </CharString>
        <CharString name="h">
          45 66 callgsubr
          674 54 vstem
          610 1101.99 36 callsubr
          705 -54 -1536 -81 callgsubr
        </CharString>
        <CharString name="hyphen">
          -469 16 callgsubr
        </CharString>
        <CharString name="i">
          -654 0 43 1321.99 111 hstemhm
          156.99 -69 callgsubr
          -82.98 -107 callgsubr
          hintmask 00000000
          hintmask 11100000
          211.99 137 callgsubr
          38 callsubr
          -12 callgsubr
          hvcurveto
          hintmask 11010000
          27 -1475.99 rmoveto
          1082 -87 callsubr
          -1082 vlineto
          endchar
        </CharString>
        <CharString name="iacute">
          98 callgsubr
          351.99 1512 99 callgsubr
          -1512 rmoveto
          111 callsubr
        </CharString>
        <CharString name="icircumflex">
          -670 0 43 198 callsubr
          56.99 177 callgsubr
          462.99 1250 rmoveto
          33 callgsubr
          200 callsubr
          64 vlineto
          185 158 callgsubr
          133 callsubr
          68 hlineto
          -228 -1239.98 rmoveto
          111 callsubr
        </CharString>
        <CharString name="idieresis">
          -670 0 43 1298.99 111 hstem
          -68 callgsubr
          -69 callgsubr
          136.99 54 143.01001 -69 callgsubr
          vstem
          -12 1452.99 rmoveto
          38 callsubr
          30.98 190 callgsubr
          -103 callgsubr
          31 -23 callgsubr
          25 -30.98 hvcurveto
          160 callsubr
          hmoveto
          38 callsubr
          31 -88 callgsubr
          -31 hvcurveto
          -198 -1452.99 rmoveto
          111 callsubr
        </CharString>
        <CharString name="igrave">
          98 callgsubr
          262.98 1245.98 7 callgsubr
          31 -1245.98 rmoveto
          111 callsubr
        </CharString>
        <CharString name="j">
          -631 -437 54 1747.99 111 hstemhm
          162.98 111 -87.98999 -107 callgsubr
          hintmask 00000000
          hintmask 11100000
          204 callgsubr
          137 callgsubr
          -31 -21 callgsubr
          31 -12 callgsubr
          hvcurveto
          hintmask 11010000
          22 -394 rmoveto
          -87 callsubr
          -1211 hlineto
          -161 -83 -93 -147.98 -37 -37 10 8.01 -21 vhcurveto
          3 callgsubr
          -52 rlineto
          -13 31.99 32 -7 34 hhcurveto
          178.97 106 109 199 hvcurveto
          endchar
        </CharString>
        <CharString name="k">
          -107 0 43 176 callsubr
          953 hmoveto
          -528.02 622 497 460 rlineto
          -77 hlineto
          -491.99 -455 -127 179 callsubr
          rlineto
          1029.02 -54 -1536 54 448.98 vlineto
          157 134 1.99 2 498.02 -584.99 rlineto
          endchar
        </CharString>
        <CharString name="k.alt">
          -107 0 43 509.98 54 176 callsubr
          883 hmoveto
          70 hlineto
          -539.02 588.98 502 493.02 rlineto
          -71 hlineto
          -491.99 -475.01 rlineto
          -127 929.02 -54 -1536 54 552.98 159 callgsubr
          hlineto
          endchar
        </CharString>
        <CharString name="k.alt2">
          -151 0 43 489.99 54 176 callsubr
          800.99 hmoveto
          71.99 hlineto
          -574 563 547 519 rlineto
          -72.99 hlineto
          -527.01 -495 rlineto
          -19.99 972.99 -54 -1559.98 54 532.99 -103 callgsubr
          hlineto
          endchar
        </CharString>
        <CharString name="l">
          -654 0 43 43 callgsubr
          vstem
          238.98 hmoveto
          1536 -87 callsubr
          -1536 vlineto
          endchar
        </CharString>
        <CharString name="less">
          -23 261.98 807.01 hstem
          163 callgsubr
          126 callsubr
          vstem
          919 1068.99 rmoveto
          -837.02 -378 rlineto
          -8.01 vlineto
          -42 vlineto
          837.02 -379 rlineto
          59 vlineto
          -764 345 764 345.01 rlineto
          endchar
        </CharString>
        <CharString name="logicalnot">
          25 699.98 53 hstem
          860.99 -107 callgsubr
          vstem
          122 752.99 rmoveto
          -53 739 -304 -107 callgsubr
          304 vlineto
          53 vlineto
          endchar
        </CharString>
        <CharString name="longs">
          -654 0 43 1459.98 54 hstem
          173.99 -107 callgsubr
          vstem
          174 hmoveto
          -107 callgsubr
          1235.99 hlineto
          169 87 98 142 54 28 -5 -10 37 vhcurveto
          53 callsubr
          13 -41 -45 4 -42 hhcurveto
          -176 -105.99 -114.02 -49 callsubr
          hvcurveto
          endchar
        </CharString>
        <CharString name="longst">
          91 209 callgsubr
          983.99 55 420.98999 54 hstemhm
          34 callgsubr
          54 448.98999 55 hintmask 00000000
          hintmask 01111100
          1082 -37 callgsubr
          rmoveto
          hintmask 10111100
          114 callsubr
          197 vlineto
          209 vlineto
          97 callgsubr
          -74 159 callsubr
          32 -100 hhcurveto
          208 callgsubr
          -106 -51 callsubr
          vlineto
          hintmask 01111100
          59 callgsubr
          1235.99 vlineto
          169 87 98 71 callsubr
          72 98 -22 -29 -25 callgsubr
          vhcurveto
          -78.01 vlineto
          -291.98 161 callgsubr
          -55 -55 callgsubr
          -768 vlineto
          hintmask 10111100
          -217 83 -61.99 138 28.02 56 2 10 29 vhcurveto
          endchar
        </CharString>
        <CharString name="m">
          760 89 callsubr
          hstem
          160.99 -102 callsubr
          675.99998 54 680 54 vstem
          1332.98 83 callgsubr
          -193.99 -145 20 callgsubr
          -143 -59 hvcurveto
          181 -35 -119.01 75 -181.99 hhcurveto
          -183 -136 -121 -154 -64 hvcurveto
          255.02 -83 callgsubr
          -1082 -102 callsubr
          683.99 vlineto
          141 28.02 -69 callgsubr
          94 callsubr
          241 hhcurveto
          172.02 -23 callsubr
          -70 -258.99 hvcurveto
          -719.99 54 719.99 vlineto
          10 116 22 callsubr
          210 255 2.99 rrcurveto
          5 callsubr
          2 124 -76 -275 vvcurveto
          -699.99 54 699.99 vlineto
          287 -128 115 -219 vhcurveto
          endchar
        </CharString>
        <CharString name="macron">
          -265 1382.99 53 hstem
          131.99 566.98 vstem
          698.98 1382.99 rmoveto
          53 -566.99 -53 vlineto
          endchar
        </CharString>
        <CharString name="minus">
          91 720.99 -61 callsubr
          162.98 835.01 vstem
          997.99 721 -27 callsubr
          -835.02 -87 callsubr
          vlineto
          endchar
        </CharString>
        <CharString name="multiply">
          -24 -1 43 hstem
          98 845.98 vstem
          943.98 35.98 rmoveto
          -385 393.01 357 364 -39 181 callgsubr
          -356 -364.02 -357.01 364.02 -39 -39.02 202 callgsubr
          -364 -384.98 -393.01 39 -36.98 384 390.98 384 -390.98 rlineto
          endchar
        </CharString>
        <CharString name="n">
          45 66 callgsubr
          674 54 vstem
          610 1101.99 36 callsubr
          251 -54 -1082 -81 callgsubr
        </CharString>
        <CharString name="nine">
          45 -20 54 433.98 54 900 54 hstem
          206 callgsubr
          54 781.98999 54 vstem
          530.98 137 callgsubr
          -257 -170.99 -236 -281.99 -263 164 -227 256 186 157 100 156 72.99 hvcurveto
          -6 vlineto
          -421 35 callgsubr
          -262.98 -418.02 vhcurveto
          3 callsubr
          hlineto
          -2 -54 rlineto
          34 hlineto
          447.02 214 276 483.98 hvcurveto
          163 vlineto
          383 -171 190 -291 vhcurveto
          -7.99 -954 rmoveto
          -231.02 -134.99 211.99 224 125 callsubr
          145.99 228 232.02 254 150 -174 -346 hvcurveto
          33 callsubr
          vlineto
          -146 -39 -135 -173 -241.99 hhcurveto
          endchar
        </CharString>
        <CharString name="nine.frac">
          -93 callsubr
        </CharString>
        <CharString name="nine.smcp">
          -66 -14 54 335.99 54 696 55 hstem
          84.99 -26 callsubr
          676.99998 54 vstem
          477.98 1181 rmoveto
          -232 -161 -188 -224.99 -208.02 153 -183.99 232 158 -54 callgsubr
          77 115 64 hvcurveto
          -318 -1 -162 -210 -362 hhcurveto
          -28 hlineto
          -2 -54 rlineto
          30 hlineto
          395 184 239 376 hvcurveto
          119 vlineto
          297 -146 164 -253 vhcurveto
          -6 -751 rmoveto
          -49 callsubr
          -119.01 164.99 174 184.02 129 173 206 214 128 -136 -268 hvcurveto
          -47.99 vlineto
          -114.02 -34 -115 -129.99 -202.02 hhcurveto
          endchar
        </CharString>
        <CharString name="nine.sup">
          -8 48 214.99 -43 callgsubr
          446.01 -25 callgsubr
          -35 callsubr
          799.99 -66 callgsubr
          47.99 69.02 -37 callgsubr
          hvcurveto
          -198 3 callgsubr
          -103.02 -134 -238.99 hhcurveto
          -18 hlineto
          -1 -48 rlineto
          19 hlineto
          279.98 22 callsubr
          169 250 hvcurveto
          75 vlineto
          197 -97 117 -176 vhcurveto
          -5 -496 rmoveto
          -133 106 callgsubr
          105 8 callgsubr
          -77 -123.99 hhcurveto
          endchar
        </CharString>
        <CharString name="nine.tnum">
          76 endchar
        </CharString>
        <CharString name="ntilde">
          45 89 callsubr
          196 120 callsubr
          hstemhm
          5 callsubr
          54 41 41 callgsubr
          -5.98999 54 hintmask 00000000
          hintmask 11111110
          442.98 1422.99 rmoveto
          118 25 48 callgsubr
          78 162 callgsubr
          110.99 109 callgsubr
          -112 -36 124 -139 hhcurveto
          -99 204 callsubr
          75 callgsubr
          hintmask 11111001
          167.02 -321 36 callsubr
          251 -54 -1082 -81 callgsubr
        </CharString>
        <CharString name="numbersign">
          45 0 43 366.98 104 callsubr
          524.01 54 375.04 -85 callsubr
          50.99 1115.99 vstem
          1166.99 985.99 rmoveto
          54 -254 vlineto
          76 415.99 rlineto
          -56 hlineto
          -76 -415.99 rlineto
          -364 hlineto
          75 415.99 rlineto
          157 callsubr
          hlineto
          106 callgsubr
          -415.99 rlineto
          -309.98 -54 299.99 hlineto
          -95 -524 rlineto
          -280.98 -52 127 callgsubr
          hlineto
          -74 -409.99 rlineto
          -89 callgsubr
          hlineto
          107 callsubr
          409.99 rlineto
          364 hlineto
          -75 -409.99 rlineto
          -89 callgsubr
          hlineto
          75 409.99 rlineto
          294.01 52 -285 hlineto
          19 callsubr
          524 rlineto
          -152 -524 rmoveto
          -362.99 hlineto
          77 callsubr
          524 rlineto
          364.02 hlineto
          endchar
        </CharString>
        <CharString name="o">
          51 -20 54 1013.98 54 147 callsubr
          -22 callgsubr
          142 callsubr
          -105 callgsubr
        </CharString>
        <CharString name="o.ss06">
          51 -31 callgsubr
          -22 callgsubr
          54 839 -107 callgsubr
          vstem
          -22 callgsubr
          142 callsubr
          rmoveto
          30 callgsubr
          204 -223.99 127 callgsubr
          270.01 201.99 94 callsubr
          316.99 vhcurveto
          42 vlineto
          316.99 -201.99 223 -272 -269 -204 -223 -33 callsubr
          vhcurveto
          54 -42 rmoveto
          54 callgsubr
          167 233 252 20 callsubr
          167.02 19 callgsubr
          -42 vlineto
          -258.99 -167.02 -228 -251 -254 -167 228 258.99 vhcurveto
          endchar
        </CharString>
        <CharString name="oacute">
          44 callsubr
          709.98 1532.99 rmoveto
          35 callgsubr
          -265.99 134 callsubr
          -25 callsubr
          rlineto
          -686 -971 -105 callgsubr
        </CharString>
        <CharString name="ocircumflex">
          51 -38 callsubr
          355 56.99 147 callsubr
          820.98 1270.99 rmoveto
          -18 callgsubr
          185 196 187 -196 rlineto
          68 hlineto
          -731 -699 -105 callgsubr
        </CharString>
        <CharString name="odieresis">
          51 -38 callsubr
          261 111 93 callsubr
          146.98999 111 334 111 136.01001 -107 callgsubr
          vstem
          205 callgsubr
          1473.99 rmoveto
          26 callsubr
          31.01 -86 callgsubr
          -94 callgsubr
          154 callsubr
          26 callsubr
          -17 callsubr
          hvcurveto
          -701.01 -912 -105 callgsubr
        </CharString>
        <CharString name="oe">
          848 -20 54 542.98 54 417 54 hstem
          92 -107 callgsubr
          838.98999 59 757.01001 54 vstem
          1043.99 117 callsubr
          83 hlineto
          275 -174 167 -240 -198 -167 -139 -215 -61 vhcurveto
          215 -60 94 callgsubr
          139 -224 hhcurveto
          -279.98 -193 209 callsubr
          -316.99 193 -223 281.99 221 165 137.99 213 -26 callsubr
          vhcurveto
          -211 62 175.99 -140 192 hhcurveto
          171 118 104 callsubr
          91 82 hvcurveto
          -29 42 rlineto
          -83.99 -73.01 -101 -47 -168 hhcurveto
          -227 -173 171 callsubr
          -59 -44 rmoveto
          -258.99 -155 -227 -263 -266 -155 227 258.99 vhcurveto
          54 callgsubr
          155 233 263.99 265.01 155 19 callgsubr
          456 485.99 rmoveto
          217 143 -167 -217 hvcurveto
          -33 -754 vlineto
          125 callsubr
          -60 callgsubr
          151 181 219 hhcurveto
          endchar
        </CharString>
        <CharString name="ograve">
          44 callsubr
          620.99 1267 rmoveto
          -188 -25 callsubr
          rlineto
          -66 hlineto
          195 -265.99 rlineto
          -472 -705 -105 callgsubr
        </CharString>
        <CharString name="one">
          45 0 43 1376.03 -85 callsubr
          604.99 -107 callgsubr
          vstem
          658.98 hmoveto
          1460 -11 vlineto
          -461 -170 rlineto
          -59 vlineto
          418.02 157 rlineto
          -1387.99 vlineto
          endchar
        </CharString>
        <CharString name="one.smcp">
          -66 0 43 1084.03 -85 callsubr
          541.98 54 vstem
          595.99 hmoveto
          1167.99 -11 vlineto
          -418 -139 rlineto
          -59 vlineto
          374.99 123 rlineto
          -1093 vlineto
          endchar
        </CharString>
        <CharString name="one.sup">
          0 43 89 callgsubr
          hmoveto
          791 176 callgsubr
          -97.01 rlineto
          -53 vlineto
          247.99 81 rlineto
          -721.98 vlineto
          endchar
        </CharString>
        <CharString name="one.tnum">
          -95 endchar
        </CharString>
        <CharString name="ordfeminine">
          -178 690.99 -102 callsubr
          331.99998 54 290 54 hstem
          -1 callsubr
          435.01 -102 callsubr
          vstem
          738 704.98 rmoveto
          -17 58 122 callgsubr
          58 65 vvcurveto
          314 vlineto
          183 -105 93 -149 -175 -116 -98 -135 vhcurveto
          54 hlineto
          121 92 58 145 132 -45 callgsubr
          -83 -138 vhcurveto
          -69 -170 vlineto
          -202 -117 -87 -145 -126.01 88 -82.99 160.99 72 callsubr
          87 64 69 46 hvcurveto
          3 -42 7 -41 12 -36 rrcurveto
          -262 41 rmoveto
          -140 -56.02 64 94 120.02 97.02 -107 callgsubr
          169 hvcurveto
          169 -178 hlineto
          -73.01 -24 -111 -81 -104 hhcurveto
          endchar
        </CharString>
        <CharString name="ordmasculine">
          -162 689.99 54 677.98999 54 hstem
          159 callgsubr
          54 502.01 52.98 vstem
          159 callgsubr
          1140.98 rmoveto
          -116.98 vlineto
          -195.02 116 -139 190 188 115 139 195.02 vhcurveto
          116.98 vlineto
          195 -115 140 -190 -188 -116 -140 -195 vhcurveto
          54 -116.98 rmoveto
          116.98 vlineto
          154 82 127 168 170 82 -127 -154 vhcurveto
          -116.98 vlineto
          -155.02 -82 -124.99 -168.02 208 callgsubr
          -76 -9 callgsubr
          155.02 vhcurveto
          endchar
        </CharString>
        <CharString name="oslash">
          45 67 callgsubr
          87 -107 callgsubr
          838.98999 54 vstem
          832 1015.99 rmoveto
          98.98 203 rlineto
          -63 hlineto
          -83.99 -172 rlineto
          35.99 -65 -75 19 -84.01 hhcurveto
          -280 -192.99 209 callsubr
          -205.99 81 -166 134.99 -90.99 vhcurveto
          -98 -201.99 rlineto
          63 hlineto
          84 172.99 rlineto
          -102 callgsubr
          62 71 -17.02 77 hhcurveto
          281 191 223 316.99 hvcurveto
          42 vlineto
          199 -75 162 -127 93 vhcurveto
          -691.02 -496 rmoveto
          54 callgsubr
          155.02 233 263.98 76 -45 callgsubr
          205 callsubr
          -33.02 -89 callgsubr
          vhcurveto
          -431 -889 rlineto
          -121 88 144 callsubr
          156 169 vvcurveto
          839 hmoveto
          -258.99 -154.99 -227 -263 -70 -62 16 124 callsubr
          -54 vhcurveto
          431 886.01 rlineto
          111 -8 callsubr
          140 callgsubr
          -151.99 -159 vvcurveto
          endchar
        </CharString>
        <CharString name="otilde">
          51 -38 callsubr
          196 120 callsubr
          93 callsubr
          112.01 -102 callsubr
          528.98999 55 88.01001 -107 callgsubr
          vstem
          895 1483.98 rmoveto
          -31 callsubr
          -36 124 -139 hhcurveto
          -99 -76.98 75 callgsubr
          118.01 25 -29 callsubr
          162 callgsubr
          110.99 hvcurveto
          -805.01 -921.99 -105 callgsubr
        </CharString>
        <CharString name="p">
          16 callsubr
          193 -54 -337.02 -83 callsubr
        </CharString>
        <CharString name="p.ss06">
          43 -31 callgsubr
          169.98 54 740.01001 -102 callsubr
          188 callsubr
          -176 -122 -86 -128 -70 hvcurveto
          -11 194 rlineto
          -42 -337.02 hlineto
          -1160.99 54 584 vlineto
          -109.02 68 125.01 -79.97 176 36 callgsubr
          373 90 callgsubr
          -134 -210 -236 -198 -121 126 callgsubr
          135 -51 vhcurveto
          506 vlineto
          127 42 19 callsubr
          146 230 hhcurveto
          238 134 65 callgsubr
        </CharString>
        <CharString name="paragraph">
          -130 46 callsubr
          715.98 54 vstem
          715.98 hmoveto
          54 -64 callgsubr
          -179 hlineto
          -319 -173.02 161 callgsubr
          -268 -270.01 173.02 -198 319 hvcurveto
          -9 callgsubr
          hlineto
          endchar
        </CharString>
        <CharString name="parenleft">
          -469 191 callgsubr
          159 callgsubr
          54 vstem
          159 callgsubr
          585.99 rmoveto
          -20 vlineto
          -486 191 -408.98 223 -141 vhcurveto
          19 -37 callgsubr
          rlineto
          -198 131 -181 427.99 432 vvcurveto
          25.99 vlineto
          432 181 427.99 198 130 vhcurveto
          -19 43 rlineto
          -223 -141 -191 -435 -461 vvcurveto
          endchar
        </CharString>
        <CharString name="parenright">
          -453 191 callgsubr
          406.99 -107 callgsubr
          vstem
          460.98 181 callsubr
          rmoveto
          20 vlineto
          461 -191 435 -223 141 vhcurveto
          205 callsubr
          -43 rlineto
          198 -130 181 -427.99 -432 vvcurveto
          22 callgsubr
          vlineto
          -432 -181 -427.99 -198 -131 vhcurveto
          206 callsubr
          -42.99 rlineto
          223 141 191 408.98 486 vvcurveto
          endchar
        </CharString>
        <CharString name="percent">
          451 -20.99 -102 callsubr
          567.98 55 143 55 567 55 hstem
          -64 callsubr
          -102 callsubr
          432.99998 55 213.01001 55 432.98999 55 vstem
          -64 callsubr
          1175.98 rmoveto
          204 callsubr
          vlineto
          -163 109 -136 165 161 108.01 136 163 vhcurveto
          76.99 vlineto
          165 -109.02 136 -162 -163 -109 -136 -165 vhcurveto
          -102 callsubr
          204 callsubr
          rmoveto
          76.99 vlineto
          123 126 callsubr
          123 144 146 70 -123 -123 vhcurveto
          204 callsubr
          vlineto
          -122 -69 -122 -145 -149 -70 122.99 121.02 vhcurveto
          253 -968 rmoveto
          711 1137.99 -44.99 31 -711 -1137.99 rlineto
          493 -34 callsubr
          rmoveto
          14 callgsubr
          vlineto
          -164 108.99 203 callgsubr
          164 162 108.01 200 callgsubr
          164 vhcurveto
          96 callsubr
          vlineto
          164 -108.01 136 -164 -162 -108.99 -136 -164 vhcurveto
          55 14 callgsubr
          rmoveto
          96 callsubr
          vlineto
          134 73 111 142.99 147 70 -111 -134 vhcurveto
          14 callgsubr
          vlineto
          -123 -69 -122 -146 -148.99 -69 123 122 vhcurveto
          endchar
        </CharString>
        <CharString name="period">
          -637 -6 -69 callgsubr
          hstem
          146.98 111 vstem
          201.99 104.98 18 callgsubr
        </CharString>
        <CharString name="periodcentered">
          -604 650.99 111 hstem
          178.99 111 vstem
          233.98 762 rmoveto
          -102 callgsubr
          -24 -25 -31 -94 callgsubr
          24 -23.98 41 callsubr
          96 callgsubr
          -97 callsubr
          31 -25 25 -94 callgsubr
          hvcurveto
          endchar
        </CharString>
        <CharString name="plus">
          115 callsubr
          1070.98 701.99 rmoveto
          -481 504 -83 callgsubr
          -504 -462 -53 462 -503.01 -102 callsubr
          503.01 481 hlineto
          endchar
        </CharString>
        <CharString name="plusminus">
          1 -1 -107 callgsubr
          697.98999 54 hstem
          514.99 54 vstem
          569 804.99 rmoveto
          462.01 -54 -462.01 -443 -54 443 -461.99 54 461.99 419 54 vlineto
          -866 -805.99 rmoveto
          834.99 53.98 -834.99 hlineto
          endchar
        </CharString>
        <CharString name="q">
          45 67 callgsubr
          122 -89 callgsubr
          718.98999 54 vstem
          896.98 1082 rmoveto
          -193 vlineto
          128 -70 -121 84.99 -176 hhcurveto
          -256.98 -151 -41 callgsubr
          150 -221 256 176 -9 callgsubr
          79.99 108.01 68 vhcurveto
          -584 54 167 callsubr
          -1048 24 callsubr
          226 100 -151 -122 41.99 vhcurveto
          -506 vlineto
          -134 -51 64 callsubr
        </CharString>
        <CharString name="q.ss06">
          43 -31 callgsubr
          76 callsubr
          56 739.01001 -107 callgsubr
          vstem
          899.99 1082 rmoveto
          -5 -193 rlineto
          127 -70 -121 86 -176 hhcurveto
          -257 -171 9 callsubr
          -330 170 -211.99 256 176 -9 callgsubr
          79.97 183 callgsubr
          142 callgsubr
          vhcurveto
          -584 -107 callgsubr
          167 callsubr
          -1049 rmoveto
          121 callsubr
          -133 -10 callgsubr
          133 219 238 226 100 -151 -122 42 vhcurveto
          -506 vlineto
          -135 -51.02 64 callsubr
        </CharString>
        <CharString name="question">
          -183 -6 -69 callgsubr
          1318.01001 53 hstemhm
          93 -107 callgsubr
          224 111 -87 -107 callgsubr
          297.99998 54 hintmask 11101100
          395 399.99 -27 callsubr
          hlineto
          115 33.02 106 99 77 vhcurveto
          150 134.99 70 101.01 176 vvcurveto
          208 -120.01 158 -222.99 -196 -166 -130 79 callgsubr
          3 callgsubr
          vhcurveto
          -107 callgsubr
          hlineto
          180 4.02 114 127 193 hhcurveto
          193 19 callsubr
          -132 179 callgsubr
          -182.99 12 callgsubr
          -72 -122 -117 hvcurveto
          143 callsubr
          5 callgsubr
          -38.02 -84.01 -1.99 95 callsubr
          rrcurveto
          hintmask 11110100
          -103 callgsubr
          -295.01 rmoveto
          -70 callgsubr
          endchar
        </CharString>
        <CharString name="questiondown">
          -164 -381 53 1317.98 111 hstemhm
          72 callsubr
          54 264.98999 111 -78 54 248.01001 -107 callgsubr
          hintmask 00000000
          hintmask 11110100
          482.98 989.98 rmoveto
          -97 callsubr
          24 25 -97 callsubr
          -103 callgsubr
          -24 24 -94 callgsubr
          -102 callgsubr
          -25 -24 -102 callgsubr
          -94 callgsubr
          25 -25 156 callgsubr
          hintmask 10101100
          -97 callsubr
          -295 rmoveto
          -54 hlineto
          -115 0 -58 -99 -77 vhcurveto
          -150 -135 -102.99 -122 -202.98 vvcurveto
          -217 130 -149 222.99 158 callgsubr
          156 118 242 2.99 vhcurveto
          -87 callsubr
          hlineto
          -180 -4.01 -104 -127.02 -193 hhcurveto
          -193 -105.99 117 194 209.98 105 93 122 117 hvcurveto
          106 callsubr
          108.02 5.02 35.98 1.99 148 rrcurveto
          endchar
        </CharString>
        <CharString name="quotedbl">
          -555 1121.99 414 hstem
          154.99 -102 callsubr
          146.99998 54 vstem
          209.98 198 callsubr
          rmoveto
          143.02 -83 callgsubr
          -146 vlineto
          -5 -268 rlineto
          -25 callgsubr
          hlineto
          211 127 callgsubr
          rmoveto
          143.02 -54 -146 vlineto
          -6 -268 rlineto
          50 hlineto
          endchar
        </CharString>
        <CharString name="quotedblbase">
          -595 165 callsubr
          117 -107 callgsubr
          vstem
          78 callsubr
          76 callsubr
          rmoveto
          128 -54 -32 callsubr
          43 92 207 callgsubr
          vvcurveto
          182 callsubr
          hmoveto
          128 -87 callsubr
          -32 callsubr
          -37 callgsubr
          92 207 callgsubr
          vvcurveto
          endchar
        </CharString>
        <CharString name="quotedblleft">
          -576 193 callsubr
          77 callsubr
          54 131.98999 54 vstem
          77 callsubr
          1271.99 rmoveto
          -42 callsubr
          186 hmoveto
          -42 callsubr
          endchar
        </CharString>
        <CharString name="quotedblright">
          -574 1142.01999 -85 callsubr
          105 callsubr
          54 128 -107 callgsubr
          vstem
          220 1432.99 rmoveto
          103.02 -54 -19 callsubr
          43 92 123 vvcurveto
          181.99 hmoveto
          103.02 -87 callsubr
          -19 callsubr
          -37 callgsubr
          92 123 vvcurveto
          endchar
        </CharString>
        <CharString name="quoteleft">
          -756 193 callsubr
          126 callgsubr
          54 vstem
          126 callgsubr
          1271.99 rmoveto
          -42 callsubr
          endchar
        </CharString>
        <CharString name="quoteright">
          -756 1142.01999 -85 callsubr
          105 callsubr
          54 vstem
          220 1432.99 rmoveto
          103.02 -54 -19 callsubr
          43 92 123 vvcurveto
          endchar
        </CharString>
        <CharString name="quotesinglbase">
          -776 165 callsubr
          vstem
          78 callsubr
          76 callsubr
          rmoveto
          128 -54 -32 callsubr
          43 92 207 callgsubr
          vvcurveto
          endchar
        </CharString>
        <CharString name="quotesingle">
          -736 1121.99 414 hstem
          144.99 -102 callsubr
          vstem
          -55 callgsubr
          1367 rmoveto
          169 -83 callgsubr
          -171 vlineto
          122 callgsubr
          -243 rlineto
          50 hlineto
          endchar
        </CharString>
        <CharString name="r">
          -391 66 callgsubr
          vstem
          578.99 83 callgsubr
          -177 -116 -95 -150 -59.99 hvcurveto
          225 -54 -1082 54 707.99 vlineto
          -34 callsubr
          35 117 146 201 hhcurveto
          25 24 3 callgsubr
          -3.02 21 hvcurveto
          6 48 rlineto
          6 -17 199 callsubr
          5 -32.99 hhcurveto
          endchar
        </CharString>
        <CharString name="registered">
          598 -20.99 -102 callsubr
          643.99 -89 callgsubr
          366.99998 55 265 55 hstemhm
          115 -102 callsubr
          423 -102 callsubr
          395.99998 -89 callgsubr
          -33.99 55 358 56 hintmask 1111111010000000
          825 137 callgsubr
          -392.01 -317.99 187 callgsubr
          317.99 -326.98 392.01 391.99 318.02 187 callsubr
          -318.02 323.99 -391.99 hvcurveto
          -1442 vmoveto
          -359.02 -296 307 388 388.01 296 303.98 359.02 202 callgsubr
          130 callgsubr
          -357.99 hvcurveto
          hintmask 1111110110000000
          296 881.99 rmoveto
          158 -96.99 82 -192 vhcurveto
          -239 -830.01 -102 callsubr
          352.01 hlineto
          hintmask 1111111010000000
          212 hlineto
          134.98 49 -49 -124.99 hvcurveto
          -34 vlineto
          -29 0 -81 14.01 -34.02 vhcurveto
          59 16.02 hlineto
          -11.02 30 -6 46.98 50.02 vvcurveto
          36 vlineto
          94 3 callsubr
          81 -101.01 29.99 vhcurveto
          hintmask 1111110110000000
          97.02 39 57 68 99 vvcurveto
          -268 -182 rmoveto
          -205 367 184.02 hlineto
          176.99 57 -59 -124.99 -120 -96.99 -63.02 -116 hvcurveto
          endchar
        </CharString>
        <CharString name="ring">
          -490 1211.98 54 236 54 153 callgsubr
          233.98999 54 vstem
          285 1555.99 rmoveto
          105 callgsubr
          -75 -76 -98 -98 75 -72 77 callgsubr
          77 callsubr
          76 72 98 98 -76 76 -94.99 hvcurveto
          -290 vmoveto
          -68.01 104 callgsubr
          47 69 71 -43 callgsubr
          -43 callgsubr
          68.01 68 -43 callgsubr
          104 callgsubr
          -71 -69 104 callgsubr
          -47 -68 hvcurveto
          endchar
        </CharString>
        <CharString name="s">
          -57 -38 callsubr
          hstemhm
          72 callsubr
          54 -19 54 641.98999 54 hintmask 11011000
          508.99 531.99 rmoveto
          60 callsubr
          hintmask 11101000
          -12 callsubr
          hintmask 11011000
          23 callgsubr
          184 -145 -9 callgsubr
          -241.99 113 callsubr
          vhcurveto
          endchar
        </CharString>
        <CharString name="section">
          147 -495 54 604.98 32 600.01001 124 callsubr
          598.99998 54 hstemhm
          115 -107 callgsubr
          -47.99 -107 callgsubr
          -9 54 774.98 55 -31.98 -107 callgsubr
          3 callsubr
          -107 callgsubr
          hintmask 1101001100000000
          790 163.98 rmoveto
          hintmask 1101001001000000
          187 27.02 116.99 76 callsubr
          140 vvcurveto
          225 -180 73 -297.98 75 vhcurveto
          -320 92.02 -76 71.99 164 vvcurveto
          -14 callgsubr
          123 130 274.98 vhcurveto
          hintmask 1111001010000000
          259.01 141 -169 -208 hvcurveto
          -107 callgsubr
          hlineto
          278 -170.99 153 -283.02 -274.98 -177 -137 -210 -157.99 87 -87 155 -61 vhcurveto
          hintmask 1111010100000000
          207 callsubr
          -28 -109 -99 -145 vvcurveto
          -226 193.99 -89 292 -70 vhcurveto
          313 -82 75 -82 -152.98 vvcurveto
          -168 143 callgsubr
          -122 -253 vhcurveto
          hintmask 1101100100000000
          161 callgsubr
          -231 88 291 hvcurveto
          -87 callsubr
          -2 rlineto
          -323.99 245.99 -107.01 239 272.02 -10 callsubr
          128 218 vhcurveto
          hintmask 1101001100000000
          105 callsubr
          -93 107 callgsubr
          -166.99 63 vhcurveto
          hintmask 1111010001000000
          -615.02 389 rmoveto
          130 77 callgsubr
          104 211 9.02 vhcurveto
          33 201 callsubr
          37 -10 157 callgsubr
          -10 rrcurveto
          345 -95 105 14 callgsubr
          -165 vvcurveto
          -126 -45 callsubr
          -104.02 -222 -1.99 vhcurveto
          -22 6 -23 7 -24 6 rrcurveto
          -361 101.99 -88 62 174 vvcurveto
          endchar
        </CharString>
        <CharString name="semicolon">
          -712 955.98 111 hstemhm
          -9 callgsubr
          111 -67.01001 54 hintmask 00000000
          hintmask 11000000
          180 1066.99 rmoveto
          -31 -80 callgsubr
          -94 callgsubr
          24 -24 31 30.99 25.01 194 callgsubr
          -23 callgsubr
          25 -102 callgsubr
          hvcurveto
          hintmask 10100000
          -37 callgsubr
          -1040 -24 callgsubr
        </CharString>
        <CharString name="seven">
          45 0 43 1358.99 -61 callsubr
          76.98 929.99 vstem
          1006.98 1421.99 rmoveto
          34 -930 -87 callsubr
          868 vlineto
          -634 -1402 rlineto
          55 hlineto
          endchar
        </CharString>
        <CharString name="seven.frac">
          -7 callgsubr
        </CharString>
        <CharString name="seven.smcp">
          -66 171 callgsubr
          69 838.98 vstem
          907.98 1129.98 rmoveto
          35 -838.99 -83 callgsubr
          778 vlineto
          -570 -1110 rlineto
          -89 callgsubr
          hlineto
          endchar
        </CharString>
        <CharString name="seven.sup">
          0 43 695.97 50 10 callgsubr
          756.98 rmoveto
          32 -575 -50.02 517 vlineto
          -381.99 -738.98 rlineto
          -89 callgsubr
          hlineto
          endchar
        </CharString>
        <CharString name="seven.tnum">
          -6 endchar
        </CharString>
        <CharString name="six">
          169 callgsubr
          128 -107 callgsubr
          777 -107 callgsubr
          vstem
          591.99 64 callgsubr
          19 285 203 333.99 hhcurveto
          19 54 -19 hlineto
          -378 -314.98 210 callsubr
          203.98 -196.99 270 242 191 callsubr
          -152.99 203 -268 vhcurveto
          10 -924 rmoveto
          -246 -174 182 278 hvcurveto
          129 vlineto
          -14 callgsubr
          39 178 129 callsubr
          -138.02 -211 -219 hvcurveto
          endchar
        </CharString>
        <CharString name="six.frac">
          -93 callgsubr
        </CharString>
        <CharString name="six.smcp">
          -66 -75 callsubr
          672.99 55 359 54 hstem
          131.99 54 673 54 vstem
          534 764.99 rmoveto
          -157 -127 -72.99 105 callgsubr
          -63.02 hvcurveto
          360 18 242.02 168 291.98 hhcurveto
          17.02 54 -17.02 hlineto
          -338.99 -268 -208 -446.01 hvcurveto
          -126 vlineto
          -246.99 174 -166.99 235 220 152 173.97 225.02 215 -137 166.99 -241.99 vhcurveto
          7 -728 rmoveto
          -207 95 callsubr
          141 220 hvcurveto
          77 callgsubr
          vlineto
          -23 callsubr
          35 149 92 156 hhcurveto
          224 109 -145.99 -182 -184 -123 -161 -194.99 hvcurveto
          endchar
        </CharString>
        <CharString name="six.sup">
          53 callgsubr
          433.00002 -43 callgsubr
          227.99998 50 -11 callgsubr
          518.98 rmoveto
          -101.01 -82 -47 33 callsubr
          -42.99 hvcurveto
          94 callsubr
          12 149 112 200 hhcurveto
          12 50 -13 hlineto
          -248 -166 -151.02 -291.98 hvcurveto
          -80.02 vlineto
          -167 21 callsubr
          -117.98 166 154 102 117.98 152 143.99 -8 callsubr
          116 94 callgsubr
          vhcurveto
          -482 vmoveto
          -130.99 -96.02 91.02 145.98 hvcurveto
          59 vlineto
          79.02 57 callgsubr
          -95.01 -117 -118.99 14 callgsubr
          159 callsubr
          -45 callsubr
          hvcurveto
          endchar
        </CharString>
        <CharString name="six.tnum">
          169 callgsubr
          121 -107 callgsubr
          777 54 vstem
          584.99 64 callgsubr
          19.01 285 203 334.01 hhcurveto
          206 callsubr
          54 205 callsubr
          hlineto
          -378 -315 210 callsubr
          204 -196.99 269.98 242.02 191 callsubr
          -153 203 -268 vhcurveto
          9.99 -924 rmoveto
          -245.99 -174.02 182 278 hvcurveto
          129 vlineto
          -14 callgsubr
          181 callgsubr
          -10 callsubr
          129 callsubr
          -138 -211 -219.02 hvcurveto
          endchar
        </CharString>
        <CharString name="slash">
          -294 1415.01999 -85 callsubr
          198 callgsubr
          667.01 vstem
          126 callgsubr
          -125 rmoveto
          608.01 1580.99 rlineto
          -59 hlineto
          -608.01 -1580.99 rlineto
          endchar
        </CharString>
        <CharString name="space">
          -586 endchar
        </CharString>
        <CharString name="st">
          553 -85 callgsubr
          -53 54 992.99 55 -34.01001 54 329.01001 52.98 hstemhm
          72 callsubr
          54 -19 54 516 53 72.98999 54 325 55 hintmask 0000000000000000
          hintmask 1010101111000000
          1542.98 198 callgsubr
          rmoveto
          -5 -36.99 -29 -4 -41 hhcurveto
          -87 -76 56 190 hvcurveto
          748 245.99 55 -245.99 62 vlineto
          181 -67.01 158.99 -233 -140 164 callgsubr
          -92 94 callgsubr
          vhcurveto
          hintmask 0101101111000000
          -66 16 -56 27.01 -64 vhcurveto
          40 -64 -85.01 22 79 callsubr
          hhcurveto
          113 callsubr
          hvcurveto
          60 callsubr
          hintmask 0110110111000000
          -12 callsubr
          hintmask 0101101111000000
          23 callgsubr
          181 -126 45 207 vvcurveto
          127 82 78 -23 callsubr
          179.02 -63 callgsubr
          -115.02 -171.99 vhcurveto
          hintmask 1010101111000000
          -62 161 callgsubr
          -55 -55 callgsubr
          -748 vlineto
          -217 83 -82.98 138 36 41 0.99 13 37 vhcurveto
          endchar
        </CharString>
        <CharString name="sterling">
          74 0 -107 callgsubr
          613 54 700.98999 54 hstemhm
          294.99 54 -38.01001 54 616.01001 54 hintmask 11110100
          218.99 -58 callsubr
          179 callsubr
          -87 callsubr
          962.01 hlineto
          -1 -107 callgsubr
          rlineto
          hintmask 11101100
          -757 hlineto
          48 58 22 94 3 callgsubr
          130 -10 331 rcurveline
          367.99 54 hlineto
          hintmask 11110100
          -369.99 hlineto
          -9 318 rlineto
          247.99 120 135 192 175 145 -97 -236 vhcurveto
          54 hlineto
          228 -133.02 159 -240.99 -222 -144 -161.02 -275.98 vhcurveto
          8.99 -318 rlineto
          -209 -54 hlineto
          hintmask 11101100
          211 hlineto
          10 -331 rlineto
          hintmask 11110100
          3 -120.01 -28.02 -140.99 -71.99 -21.01 rrcurveto
          endchar
        </CharString>
        <CharString name="sterling.smcp">
          -90 0 -107 callgsubr
          512.98999 54 506.01001 54 hstemhm
          247.48 54 -47.48999 -107 callgsubr
          533.01 54 hintmask 00000000
          hintmask 11101100
          76 callgsubr
          -58 callsubr
          -10 -87 callsubr
          851.99 hlineto
          -0.98 -107 callgsubr
          rlineto
          -742.01 hlineto
          206 callgsubr
          92 -33 callgsubr
          160 -6 -14 callgsubr
          -4 101 rcurveline
          421.99 54 hlineto
          hintmask 11110100
          -424 hlineto
          -5 123 rlineto
          250.98 -10 95 callgsubr
          132.02 192 hhcurveto
          174.98 4 callgsubr
          -88 -245 hvcurveto
          54 hlineto
          231 -75 156.02 -244 -222 179 callsubr
          -165 -272 11 vhcurveto
          5.02 -123 rlineto
          -215.02 -54 hlineto
          hintmask 11101100
          217 hlineto
          4.02 -101 5.98 -145 -41.99 -225 -131 -42 rlinecurve
          endchar
        </CharString>
        <CharString name="t">
          -428 -20 54 992.99 55 hstem
          237.99 -102 callsubr
          vstem
          563 -37 callgsubr
          rmoveto
          114 callsubr
          291.98 -83 callgsubr
          -291.98 -200 -55 200 -768 vlineto
          -217 82.99 -61.99 138.02 28 56 2 10 29 vhcurveto
          endchar
        </CharString>
        <CharString name="thorn">
          16 callsubr
          647 -54 -791.02 -83 callsubr
        </CharString>
        <CharString name="three">
          45 -20 54 679.99 -89 callgsubr
          651.99998 54 hstemhm
          206 callgsubr
          54 -23.01001 54 733 54 -21.98999 -107 callgsubr
          hintmask 11110010
          703 744.98 rmoveto
          hintmask 11101100
          169 53 103 130 153 vvcurveto
          245 -161 150 -250 -234 -196 -153 -249 vhcurveto
          54 hlineto
          216 166 132 210 248 109 -153.99 -183 -168 -138 -147 -255 vhcurveto
          -111 -7 hlineto
          104 callgsubr
          111 vlineto
          hintmask 11110010
          248 177 -94 -238 -217 -138.02 -130.99 -242 -237 -179 154.99 216 hvcurveto
          -54 hlineto
          178 callsubr
          251 -130.99 218.99 251 182.99 148 257.98 191 20 callgsubr
          124 -191 44 vhcurveto
          endchar
        </CharString>
        <CharString name="three.smcp">
          -66 -75 callsubr
          528.99 55 505.01001 55 hstemhm
          92 -107 callgsubr
          -27 54 649.98999 54 -25 54 hintmask 11110010
          639 595.99 rmoveto
          hintmask 11101100
          148.99 44.02 89 104.98 117 vvcurveto
          200 -144 119 -226.02 -211.99 -176 -126.01 -196 vhcurveto
          54 hlineto
          105 callsubr
          147 101.01 186.98 220.02 19 callsubr
          -116 -144 -132.02 -122 20 callgsubr
          -227 vhcurveto
          -101 122 callgsubr
          hlineto
          -46 101 vlineto
          hintmask 11110010
          222 156 -75 -183.99 -169 -123 -101 -214 -211 -158 118 167 hvcurveto
          -87 callsubr
          hlineto
          -232 94 callsubr
          -105.98 199 226 165 117.98 208 147 -98 101 -169 157 callgsubr
          vhcurveto
          endchar
        </CharString>
        <CharString name="three.sup">
          53 callgsubr
          340.00002 -43 callgsubr
          324.99998 49 -44 callgsubr
          403.99 rmoveto
          hintmask 11101100
          98 -97 callsubr
          -89 callgsubr
          71 75.99 vvcurveto
          138 40 callsubr
          -131 vhcurveto
          53 hlineto
          104.02 93 64.99 12 callsubr
          140 62 -74 -92 -87 -77 12 callgsubr
          -146 vhcurveto
          -71 -10 hlineto
          -38.99 71 vlineto
          hintmask 11110010
          71 callsubr
          100 -48 -37 callsubr
          -71.98 138 155 115 80.98 141 96.02 -60 70 20 callgsubr
          124 callsubr
          vhcurveto
          endchar
        </CharString>
        <CharString name="three.tnum">
          48 endchar
        </CharString>
        <CharString name="tilde">
          -259 85 callsubr
          -22 callgsubr
          55 529 -102 callsubr
          hintmask 00000000
          hintmask 10111000
          728.99 1472 rmoveto
          -83 callgsubr
          hlineto
          -84.01 -55 -47 -66 vhcurveto
          hintmask 11011000
          -111.99 -36 52 callsubr
          55 hlineto
          84 -107 callgsubr
          151 callsubr
          118.01 -98 callgsubr
          0 callgsubr
          hintmask 10111000
          98.02 96 callsubr
          162 callgsubr
          111 hvcurveto
          endchar
        </CharString>
</ttFont>
